#N canvas -8 -8 1366 725 12;
#X obj 1789 -123 loadbang;
#X obj 1860 -94 tgl 15 0 empty empty empty 17 7 0 10 -262144 -1 -1
1 1;
#X msg 1892 -95 \; pd dsp 1;
#X msg 1976 -93 \; pd dsp 0;
#N canvas 0 50 450 250 (subpatch) 0;
#X array padT4 1.55232e+007 float 0;
#X coords 0 1 1.55232e+007 -1 200 140 1 0 0;
#X restore 62 312 graph;
#N canvas 0 50 450 250 (subpatch) 0;
#X array padT5 1.55232e+007 float 0;
#X coords 0 1 1.55232e+007 -1 200 140 1 0 0;
#X restore 273 313 graph;
#N canvas 0 50 450 250 (subpatch) 0;
#X array padT6 1.55232e+007 float 0;
#X coords 0 1 1.55232e+007 -1 200 140 1 0 0;
#X restore 492 314 graph;
#N canvas 0 50 450 250 (subpatch) 0;
#X array padT9 1.55232e+007 float 0;
#X coords 0 1 1.55232e+007 -1 200 140 1 0 0;
#X restore 703 313 graph;
#N canvas -8 -8 1366 685 preload 0;
#X obj 163 879 soundfiler;
#X floatatom 208 906 15 0 0 0 - - -;
#X obj 450 875 soundfiler;
#X floatatom 450 911 15 0 0 0 - - -;
#X obj 732 877 soundfiler;
#X floatatom 732 913 15 0 0 0 - - -;
#X obj 116 1065 soundfiler;
#X floatatom 116 1101 15 0 0 0 - - -;
#X obj 34 511 soundfiler;
#X floatatom 34 537 15 0 0 0 - - -;
#X obj 881 483 soundfiler;
#X floatatom 884 516 15 0 0 0 - - -;
#X obj 500 714 soundfiler;
#X floatatom 500 744 15 0 0 0 - - -;
#X obj 65 -54 inlet;
#X obj 92 766 inlet;
#X text 646 -92 Free percusions;
#X text 279 -82 Free Arpeggiator;
#X text 194 990 Mar;
#X obj 1042 876 soundfiler;
#X floatatom 1042 912 15 0 0 0 - - -;
#X obj 1352 872 soundfiler;
#X floatatom 1352 908 15 0 0 0 - - -;
#X text 1021 745 Guitarras especiales 1 y 2;
#X obj 54 952 inlet;
#X obj 206 937 s guit_1;
#X obj 395 939 s guit_2;
#X obj 732 951 s guit_3;
#X obj 113 1134 s marMala;
#X obj 1042 951 s antiGui_1;
#X obj 1352 941 s antiGui_2;
#X msg 141 844 read -resize guiMar2/GUIT1.wav padT4;
#X msg 425 842 read -resize guiMar2/GUIT2.wav padT5;
#X msg 707 844 read -resize guiMar2/GUIT3.wav padT6;
#X text 658 750 Guitarras 1-3;
#X msg 1017 844 read -resize guiMar2/ANTIGUIT1.wav padT10;
#X msg 1327 839 read -resize guiMar2/ANTIGUIT2.wav padT11;
#X msg 91 1032 read -resize guiMar2/MARBASS.wav padT9;
#X msg 80 -16 read -resize guiMar2/FREEARP-001.wav padT1-1;
#X msg 81 18 read -resize guiMar2/FREEARP-002.wav padT1-2;
#X msg 81 51 read -resize guiMar2/FREEARP-003.wav padT1-3;
#X msg 81 80 read -resize guiMar2/FREEARP-004.wav padT1-4;
#X msg 78 114 read -resize guiMar2/FREEARP-005.wav padT1-5;
#X msg 78 147 read -resize guiMar2/FREEARP-006.wav padT1-6;
#X msg 85 180 read -resize guiMar2/FREEARP-007.wav padT1-7;
#X msg 85 209 read -resize guiMar2/FREEARP-008.wav padT1-8;
#X msg 83 240 read -resize guiMar2/FREEARP-009.wav padT1-9;
#X msg 84 273 read -resize guiMar2/FREEARP-010.wav padT1-10;
#X msg 84 306 read -resize guiMar2/FREEARP-011.wav padT1-11;
#X msg 504 -13 read -resize guiMar2/FREEPERC-001.wav padT2-1;
#X msg 505 20 read -resize guiMar2/FREEPERC-002.wav padT2-2;
#X msg 507 51 read -resize guiMar2/FREEPERC-003.wav padT2-3;
#X msg 506 85 read -resize guiMar2/FREEPERC-004.wav padT2-4;
#X msg 509 122 read -resize guiMar2/FREEPERC-005.wav padT2-5;
#X msg 510 155 read -resize guiMar2/FREEPERC-006.wav padT2-6;
#X msg 514 189 read -resize guiMar2/FREEPERC-007.wav padT2-7;
#X msg 515 222 read -resize guiMar2/FREEPERC-008.wav padT2-8;
#X msg 517 249 read -resize guiMar2/FREEPERC-009.wav padT2-9;
#X msg 518 282 read -resize guiMar2/FREEPERC-010.wav padT2-10;
#X msg 520 320 read -resize guiMar2/FREEPERC-011.wav padT2-11;
#X msg 521 353 read -resize guiMar2/FREEPERC-012.wav padT2-12;
#X msg 518 382 read -resize guiMar2/FREEPERC-013.wav padT2-13;
#X msg 521 417 read -resize guiMar2/FREEPERC-014.wav padT2-14;
#X msg 522 454 read -resize guiMar2/FREEPERC-015.wav padT2-15;
#X msg 527 489 read -resize guiMar2/FREEPERC-016.wav padT2-16;
#X msg 528 522 read -resize guiMar2/FREEPERC-017.wav padT2-17;
#X msg 525 551 read -resize guiMar2/FREEPERC-018.wav padT2-18;
#X msg 529 623 read -resize guiMar2/FREEPERC-020.wav padT2-20;
#X msg 528 585 read -resize guiMar2/FREEPERC-019.wav padT2-19;
#X text 1018 -80 Hojas Adán;
#X msg 906 -14 read -resize guiMar2/HOJADAN.wav padT3-1;
#X connect 0 0 1 0;
#X connect 1 0 25 0;
#X connect 2 0 3 0;
#X connect 3 0 26 0;
#X connect 4 0 5 0;
#X connect 5 0 27 0;
#X connect 6 0 7 0;
#X connect 7 0 28 0;
#X connect 8 0 9 0;
#X connect 10 0 11 0;
#X connect 12 0 13 0;
#X connect 14 0 38 0;
#X connect 14 0 39 0;
#X connect 14 0 40 0;
#X connect 14 0 49 0;
#X connect 14 0 50 0;
#X connect 14 0 70 0;
#X connect 14 0 41 0;
#X connect 14 0 42 0;
#X connect 14 0 43 0;
#X connect 14 0 44 0;
#X connect 14 0 45 0;
#X connect 14 0 46 0;
#X connect 14 0 48 0;
#X connect 14 0 47 0;
#X connect 14 0 51 0;
#X connect 14 0 52 0;
#X connect 14 0 53 0;
#X connect 14 0 55 0;
#X connect 14 0 56 0;
#X connect 14 0 57 0;
#X connect 14 0 58 0;
#X connect 14 0 59 0;
#X connect 14 0 60 0;
#X connect 14 0 62 0;
#X connect 14 0 61 0;
#X connect 14 0 63 0;
#X connect 14 0 54 0;
#X connect 14 0 64 0;
#X connect 14 0 65 0;
#X connect 14 0 66 0;
#X connect 14 0 68 0;
#X connect 14 0 67 0;
#X connect 15 0 31 0;
#X connect 15 0 32 0;
#X connect 15 0 33 0;
#X connect 15 0 35 0;
#X connect 15 0 36 0;
#X connect 19 0 20 0;
#X connect 20 0 29 0;
#X connect 21 0 22 0;
#X connect 22 0 30 0;
#X connect 24 0 37 0;
#X connect 31 0 0 0;
#X connect 32 0 2 0;
#X connect 33 0 4 0;
#X connect 35 0 19 0;
#X connect 36 0 21 0;
#X connect 37 0 6 0;
#X connect 38 0 8 0;
#X connect 39 0 8 0;
#X connect 40 0 8 0;
#X connect 41 0 8 0;
#X connect 42 0 8 0;
#X connect 43 0 8 0;
#X connect 44 0 8 0;
#X connect 45 0 8 0;
#X connect 46 0 8 0;
#X connect 47 0 8 0;
#X connect 48 0 8 0;
#X connect 49 0 12 0;
#X connect 50 0 12 0;
#X connect 51 0 12 0;
#X connect 52 0 12 0;
#X connect 53 0 12 0;
#X connect 54 0 12 0;
#X connect 55 0 12 0;
#X connect 56 0 12 0;
#X connect 57 0 12 0;
#X connect 58 0 12 0;
#X connect 59 0 12 0;
#X connect 60 0 12 0;
#X connect 61 0 12 0;
#X connect 62 0 12 0;
#X connect 63 0 12 0;
#X connect 64 0 12 0;
#X connect 65 0 12 0;
#X connect 66 0 12 0;
#X connect 67 0 12 0;
#X connect 68 0 12 0;
#X connect 70 0 10 0;
#X restore 1760 -40 pd preload;
#X obj 1787 -80 bng 15 250 50 0 empty empty empty 17 7 0 10 -262144
-1 -1;
#X text 772 95 Mar;
#N canvas 0 50 450 250 (subpatch) 0;
#X array padT10 1.55232e+007 float 0;
#X coords 0 1 1.55232e+007 -1 200 140 1 0 0;
#X restore 911 311 graph;
#N canvas 0 50 450 250 (subpatch) 0;
#X array padT11 1.55232e+007 float 0;
#X coords 0 1 1.55232e+007 -1 200 140 1 0 0;
#X restore 1128 312 graph;
#X text 603 888 Free percus;
#X text 49 855 Arpegiator;
#N canvas 41 28 1292 729 salida 0;
#X obj 205 182 dac~;
#X obj 14 267 receive~ padT1;
#X obj 128 266 receive~ padT2;
#X obj 242 269 receive~ padT3;
#X obj 109 105 receive~ padT4;
#X obj 218 104 receive~ padT5;
#X obj 327 108 receive~ padT6;
#X obj 656 77 receive~ padT9;
#X obj 763 118 receive~ padT10;
#X obj 888 118 receive~ padT11;
#X obj 773 233 dac~;
#X text 292 54 Guitarras con efectos;
#X text 795 83 Guitarras especiales;
#X text 697 51 Mar;
#X text 63 231 Canales reactivos;
#X obj 73 347 dac~;
#X connect 1 0 15 0;
#X connect 1 0 15 1;
#X connect 2 0 15 0;
#X connect 3 0 15 1;
#X connect 4 0 0 0;
#X connect 5 0 0 0;
#X connect 5 0 0 1;
#X connect 6 0 0 1;
#X connect 7 0 10 0;
#X connect 7 0 10 1;
#X connect 8 0 10 0;
#X connect 9 0 10 1;
#X restore 1756 68 pd salida audio;
#X obj 1880 57 tgl 15 0 empty empty empty 17 7 0 10 -262144 -1 -1 1
1;
#X obj 1880 90 metro 100;
#X obj 1880 123 send mt;
#X obj 1880 26 loadbang;
#X obj 1969 55 tgl 15 0 empty empty empty 17 7 0 10 -262144 -1 -1 1
1;
#X obj 1969 88 metro 100;
#X obj 1969 121 send graf;
#X symbolatom 19 -57 15 0 0 0 - - -;
#X floatatom 179 -56 5 0 0 0 - - -;
#X floatatom 223 -57 5 0 0 0 - - -;
#N canvas 301 255 1222 761 osc 0;
#X obj 81 51 inlet;
#X obj 71 339 outlet;
#X obj 126 341 outlet;
#X obj 182 341 outlet;
#X obj 81 134 oscparse;
#X obj 81 108 netreceive -u -b -f 666;
#X obj 81 160 list trim;
#X obj 81 196 unpack s s f f;
#X obj 236 341 outlet;
#X connect 0 0 5 0;
#X connect 4 0 6 0;
#X connect 5 0 4 0;
#X connect 6 0 7 0;
#X connect 7 0 1 0;
#X connect 7 1 2 0;
#X connect 7 2 3 0;
#X connect 7 3 8 0;
#X restore 149 -99 pd osc receive;
#X obj 362 -163 loadbang;
#X symbolatom 199 18 15 0 0 0 - - -;
#N canvas 485 159 1222 761 osc 0;
#X obj 81 51 inlet;
#X obj 71 339 outlet;
#X obj 126 341 outlet;
#X obj 182 341 outlet;
#X obj 81 134 oscparse;
#X obj 81 108 netreceive -u -b -f 666;
#X obj 81 160 list trim;
#X obj 85 200 unpack s s f f f f;
#X obj 242 343 outlet;
#X obj 297 345 outlet;
#X obj 353 345 outlet;
#X connect 0 0 5 0;
#X connect 4 0 6 0;
#X connect 5 0 4 0;
#X connect 6 0 7 0;
#X connect 7 0 1 0;
#X connect 7 1 2 0;
#X connect 7 2 3 0;
#X connect 7 3 8 0;
#X connect 7 4 9 0;
#X connect 7 5 10 0;
#X restore 329 -24 pd osc receive;
#X symbolatom 13 -23 15 0 0 0 - - -;
#X floatatom 372 13 5 0 0 0 - - -;
#X symbolatom 200 44 15 0 0 0 - - -;
#X floatatom 426 12 5 0 0 0 - - -;
#X floatatom 485 13 5 0 0 0 - - -;
#X floatatom 547 13 5 0 0 0 - - -;
#X symbolatom 546 -39 15 0 0 0 - - -;
#N canvas 485 159 1222 761 osc 0;
#X obj 81 51 inlet;
#X obj 71 339 outlet;
#X obj 126 341 outlet;
#X obj 182 341 outlet;
#X obj 81 134 oscparse;
#X obj 81 108 netreceive -u -b -f 666;
#X obj 81 160 list trim;
#X obj 85 200 unpack s s f;
#X connect 0 0 5 0;
#X connect 4 0 6 0;
#X connect 5 0 4 0;
#X connect 6 0 7 0;
#X connect 7 0 1 0;
#X connect 7 1 2 0;
#X connect 7 2 3 0;
#X restore 676 -81 pd osc receive;
#X floatatom 685 -43 5 0 0 0 - - -;
#X symbolatom 547 -13 15 0 0 0 - - -;
#X symbolatom 793 -36 15 0 0 0 - - -;
#N canvas 485 159 1222 761 osc 0;
#X obj 81 51 inlet;
#X obj 71 339 outlet;
#X obj 126 341 outlet;
#X obj 182 341 outlet;
#X obj 81 134 oscparse;
#X obj 81 108 netreceive -u -b -f 666;
#X obj 81 160 list trim;
#X obj 242 343 outlet;
#X obj 297 345 outlet;
#X obj 353 345 outlet;
#X obj 85 200 unpack s s f f f f f f;
#X obj 407 345 outlet;
#X obj 463 345 outlet;
#X connect 0 0 5 0;
#X connect 4 0 6 0;
#X connect 5 0 4 0;
#X connect 6 0 10 0;
#X connect 10 0 1 0;
#X connect 10 1 2 0;
#X connect 10 2 3 0;
#X connect 10 3 7 0;
#X connect 10 4 8 0;
#X connect 10 5 9 0;
#X connect 10 6 11 0;
#X connect 10 7 12 0;
#X restore 923 -78 pd osc receive;
#X floatatom 927 -27 5 0 0 0 - - -;
#X symbolatom 794 -10 15 0 0 0 - - -;
#X floatatom 981 -28 5 0 0 0 - - -;
#X floatatom 1040 -27 5 0 0 0 - - -;
#X floatatom 1102 -27 5 0 0 0 - - -;
#X floatatom 1158 -26 5 0 0 0 - - -;
#X text 152 110 Guitarras con efectos 1 - 5;
#X text 981 110 Guitarras especiales 1 - 2;
#X msg 168 -129 listen 44446;
#X msg 330 -134 listen 44447;
#X msg 676 -134 listen 44448;
#X msg 926 -138 listen 44449;
#X text 45 -143 Camara termica;
#X obj 124 -26 s camPix;
#X text 287 -136 Soil;
#X obj 351 47 s soilPh;
#X obj 426 47 s soilMoisture;
#X obj 486 87 s soilAirTemp;
#X obj 547 48 s soilAirHum;
#X obj 685 -8 s greenLevels;
#X obj 927 8 s sNoise;
#X obj 981 43 s sLight;
#X obj 1040 8 s sVoc;
#X obj 1102 8 s sCo2;
#X obj 416 625 bng 15 250 50 0 empty empty empty 17 7 0 10 -262144
-1 -1;
#X text 343 574 vel original;
#X obj 449 644 hsl 128 15 -0.005 0.009 0 0 empty empty empty -2 -8
0 10 -262144 -1 -1 7113 1;
#X text 403 593 vel -0.005 - 0.009;
#X obj 507 690 hsl 128 15 0 5 0 0 empty empty empty -2 -8 0 10 -262144
-1 -1 0 1;
#X text 505 664 Volumen 0 - 5;
#X obj 334 838 hsl 128 15 0 1 0 0 empty empty empty -2 -8 0 10 -262144
-1 -1 9306 1;
#X text 342 811 Posición;
#X obj 508 725 hsl 128 15 0 127 0 0 empty empty empty -2 -8 0 10 -262144
-1 -1 0 1;
#X obj 510 792 hsl 128 15 0 50 0 0 empty empty empty -2 -8 0 10 -262144
-1 -1 0 1;
#X text 510 706 Distorsión 0 - 127;
#X text 511 776 Nivel dist 1 - 50;
#X obj 509 761 hsl 128 15 0 3000 0 0 empty empty empty -2 -8 0 10 -262144
-1 -1 0 1;
#X text 508 742 Distorsión 0 - 3000;
#X obj 514 836 hsl 128 15 0 100 0 0 empty empty empty -2 -8 0 10 -262144
-1 -1 0 1;
#X text 510 817 Reverb 0 - 100;
#N canvas -8 -8 1366 725 guit_2 0;
#X obj 322 361 *~ 1;
#X obj 611 194 vsl 15 128 0 7 0 0 empty empty empty 0 -9 0 10 -262144
-1 -1 54 1;
#X obj 322 425 *~;
#X obj 392 429 vline~;
#X msg 392 385 0.1 500;
#X msg 467 385 0 500;
#X floatatom 432 741 5 0 100 0 - - -;
#X obj 321 27 loadbang;
#X obj 386 476 hsl 128 15 0 127 0 0 empty empty empty -2 -8 0 10 -262144
-1 -1 694 1;
#X obj 382 531 mtof~;
#X obj 383 574 +~;
#X obj 440 548 *~;
#X floatatom 849 796 15 0 0 0 - - -;
#X floatatom 1025 666 5 0 0 0 - - -;
#X obj 328 707 vcf~ 440 5;
#X obj 484 509 phasor~;
#X obj 387 639 snapshot~;
#X floatatom 387 667 15 0 0 0 - - -;
#X obj 398 603 receive mt;
#X floatatom 19 49 10 0 0 0 - - -;
#X obj 19 81 expr 44100 / $f1;
#X floatatom 19 115 15 0 0 0 - - -;
#X obj 325 233 phasor~;
#X obj 356 184 hsl 128 15 -0.005 0.009 0 0 empty empty empty -2 -8
0 10 -262144 -1 -1 7113 1;
#X floatatom 353 204 15 0 0 0 - - -;
#X obj 325 271 *~;
#X obj 321 303 tabread4~;
#X obj 500 137 bng 15 250 50 0 empty empty empty 17 7 0 10 -262144
-1 -1;
#X obj 211 436 tgl 15 0 empty empty empty 17 7 0 10 -262144 -1 -1 1
1;
#X obj 214 467 metro 100;
#X obj 214 491 snapshot~;
#X floatatom 214 515 5 0 0 0 - - -;
#X obj 214 557 /;
#X floatatom 214 581 5 0 0 0 - - -;
#X obj 217 683 hsl 128 15 0 1 0 0 empty empty empty -2 -8 0 10 -262144
-1 -1 9306 1;
#X obj 500 81 inlet;
#X obj 552 79 inlet;
#X obj 612 79 inlet;
#X obj 214 716 outlet;
#X obj 664 78 inlet;
#X obj 717 77 inlet;
#X obj 767 76 inlet;
#X obj 816 78 inlet;
#X msg 321 59 set padT5;
#N canvas 627 87 945 690 reverb2 0;
#X obj 36 21 inlet~;
#X obj 243 233 +~;
#X obj 285 233 +~;
#X obj 54 359 outlet~;
#X obj 124 359 outlet~;
#X obj 243 297 +~;
#X obj 348 298 +~;
#X obj 285 297 -~;
#X obj 387 297 -~;
#X obj 242 366 +~;
#X obj 286 367 +~;
#X obj 330 368 -~;
#X obj 369 368 -~;
#X obj 330 450 *~ 0;
#X obj 286 449 *~ 0;
#X obj 242 448 *~ 0;
#X obj 369 451 *~ 0;
#X obj 519 333 inlet;
#X obj 519 405 / 200;
#X obj 519 357 min 100;
#X obj 519 380 max 0;
#X text 256 49 "early echo" generators \, which also increase echo
density. Open one to see what they do., f 44;
#X text 260 128 Get the outputs of the recirculating delays. Add the
inputs to two of them., f 38;
#X text 420 287 Do a power-conserving mix of them in pairs. First combine
(1 \, 2) and (3 \, 4)..., f 41;
#X text 403 361 ...then (1 \, 3) and (2 \, 4), f 14;
#X text 428 444 The two mixing stages have a combined gain of 2 \,
so the recirculation gain is limited to 0.5., f 48;
#X text 34 379 Tap outputs from here.;
#X text 581 348 feedback gain on a scale of 0 to 100 to control reverb
time., f 30;
#X text 539 516 Put the signals back into the recirculating delays.
, f 25;
#X obj 36 45 reverb-echo echo-del1-2 5.43216;
#X obj 36 69 reverb-echo echo-del2-2 8.45346;
#X obj 36 93 reverb-echo echo-del3-2 13.4367;
#X obj 36 117 reverb-echo echo-del4-2 21.5463;
#X obj 36 141 reverb-echo echo-del5-2 34.3876;
#X obj 36 165 reverb-echo echo-del6-2 55.5437;
#X obj 261 172 delread~ loop-del1-2 60;
#X obj 303 198 delread~ loop-del2-2 71.9345;
#X obj 387 224 delread~ loop-del3-2 86.7545;
#X obj 405 249 delread~ loop-del4-2 95.945;
#X obj 242 559 delwrite~ loop-del1-2 60;
#X obj 286 536 delwrite~ loop-del2-2 71.9345;
#X obj 330 513 delwrite~ loop-del3-2 86.7545;
#X obj 369 489 delwrite~ loop-del4-2 95.945;
#X connect 0 0 29 0;
#X connect 1 0 3 0;
#X connect 1 0 5 0;
#X connect 1 0 7 0;
#X connect 2 0 4 0;
#X connect 2 0 5 1;
#X connect 2 0 7 1;
#X connect 5 0 9 0;
#X connect 5 0 11 0;
#X connect 6 0 11 1;
#X connect 6 0 9 1;
#X connect 7 0 10 0;
#X connect 7 0 12 0;
#X connect 8 0 10 1;
#X connect 8 0 12 1;
#X connect 9 0 15 0;
#X connect 10 0 14 0;
#X connect 11 0 13 0;
#X connect 12 0 16 0;
#X connect 13 0 41 0;
#X connect 14 0 40 0;
#X connect 15 0 39 0;
#X connect 16 0 42 0;
#X connect 17 0 19 0;
#X connect 18 0 16 1;
#X connect 18 0 15 1;
#X connect 18 0 14 1;
#X connect 18 0 13 1;
#X connect 19 0 20 0;
#X connect 20 0 18 0;
#X connect 29 0 30 0;
#X connect 29 1 30 1;
#X connect 30 0 31 0;
#X connect 30 1 31 1;
#X connect 31 0 32 0;
#X connect 31 1 32 1;
#X connect 32 0 33 0;
#X connect 32 1 33 1;
#X connect 33 0 34 0;
#X connect 33 1 34 1;
#X connect 34 0 1 0;
#X connect 34 1 2 0;
#X connect 35 0 1 1;
#X connect 36 0 2 1;
#X connect 37 0 6 0;
#X connect 37 0 8 0;
#X connect 38 0 6 1;
#X connect 38 0 8 1;
#X restore 366 786 pd reverb2;
#X obj 365 838 send~ padT5;
#X obj 19 12 r guit_2;
#X obj 19 154 s reGui_2;
#X obj 253 535 r guit_2;
#X obj 736 409 bng 15 250 50 0 empty empty empty 17 7 0 10 -262144
-1 -1;
#X text 791 377 SET DE DIA;
#X msg 836 688 189;
#X obj 747 632 bng 15 250 50 0 empty empty empty 17 7 0 10 -262144
-1 -1;
#X text 795 613 SET DE NOCHE;
#X msg 712 688 0.0002;
#X msg 766 687 0.8;
#X msg 801 688 16;
#X msg 869 688 2.75;
#X msg 910 686 4.7;
#X obj 771 572 r setNoche;
#X obj 731 360 r setDia;
#X obj 463 832 *;
#X floatatom 463 862 5 0 0 0 - - -;
#X obj 548 718 r modRever;
#X obj 559 759 bng 15 250 50 0 empty empty empty 17 7 0 10 -262144
-1 -1;
#X obj 748 806 *;
#X floatatom 748 867 5 0 0 0 - - -;
#X floatatom 768 777 5 0 0 0 - - -;
#X obj 836 832 bng 15 250 50 0 empty empty empty 17 7 0 10 -262144
-1 -1;
#X obj 825 748 r modDist;
#X obj 860 858 *;
#X floatatom 860 888 5 0 0 0 - - -;
#X floatatom 880 829 5 0 0 0 - - -;
#X floatatom 724 775 5 0 0 0 - - -;
#X obj 758 840 * 0.7;
#X msg 908 464 11;
#X floatatom 408 286 10 0 1 0 - - -;
#X obj 528 189 r volGenHum;
#X floatatom 529 222 5 0 0 0 - - -;
#X obj 518 256 *;
#X obj 484 310 r guitOff;
#X obj 402 313 r guitOn;
#X obj 402 345 bng 15 250 50 0 empty empty empty 17 7 0 10 -262144
-1 -1;
#X obj 485 339 bng 15 250 50 0 empty empty empty 17 7 0 10 -262144
-1 -1;
#X obj 551 785 tgl 15 0 empty empty empty 17 7 0 10 -262144 -1 -1 0
1;
#X floatatom 506 844 5 0 0 0 - - -;
#X obj 506 817 expr if($f1 == 1 \, $f2 \, 0);
#X obj 580 750 r revGuiOn;
#X obj 659 749 r revGuiOff;
#X obj 1046 717 r distOff;
#X obj 1121 718 r distOn;
#X obj 1076 754 tgl 15 0 empty empty empty 17 7 0 10 -262144 -1 -1
0 1;
#X floatatom 1028 817 5 0 0 0 - - -;
#X msg 858 465 2;
#X obj 1032 785 expr if($f1 == 1 \, $f2 \, 0);
#X msg 790 465 8;
#X msg 825 465 100;
#X obj 912 292 r volGuit;
#X msg 754 464 0.03;
#X connect 0 0 2 0;
#X connect 1 0 79 0;
#X connect 2 0 14 0;
#X connect 3 0 2 1;
#X connect 4 0 3 0;
#X connect 5 0 3 0;
#X connect 6 0 61 0;
#X connect 7 0 43 0;
#X connect 7 0 4 0;
#X connect 7 0 28 0;
#X connect 7 0 49 0;
#X connect 8 0 9 0;
#X connect 9 0 10 0;
#X connect 9 0 16 0;
#X connect 9 0 15 0;
#X connect 10 0 14 1;
#X connect 11 0 10 1;
#X connect 12 0 70 0;
#X connect 13 0 94 1;
#X connect 14 0 44 0;
#X connect 14 0 45 0;
#X connect 15 0 11 0;
#X connect 16 0 17 0;
#X connect 18 0 16 0;
#X connect 19 0 20 0;
#X connect 20 0 21 0;
#X connect 21 0 22 0;
#X connect 21 0 23 0;
#X connect 21 0 47 0;
#X connect 22 0 25 0;
#X connect 23 0 24 0;
#X connect 24 0 22 0;
#X connect 25 0 26 0;
#X connect 25 0 30 0;
#X connect 26 0 0 0;
#X connect 27 0 19 0;
#X connect 27 0 49 0;
#X connect 28 0 29 0;
#X connect 29 0 30 0;
#X connect 30 0 31 0;
#X connect 31 0 32 0;
#X connect 32 0 33 0;
#X connect 33 0 34 0;
#X connect 34 0 38 0;
#X connect 35 0 27 0;
#X connect 36 0 23 0;
#X connect 37 0 1 0;
#X connect 39 0 8 0;
#X connect 40 0 13 0;
#X connect 41 0 12 0;
#X connect 42 0 6 0;
#X connect 43 0 26 0;
#X connect 44 1 45 0;
#X connect 46 0 19 0;
#X connect 46 0 25 1;
#X connect 48 0 32 1;
#X connect 49 0 98 0;
#X connect 49 0 96 0;
#X connect 49 0 95 0;
#X connect 49 0 93 0;
#X connect 49 0 75 0;
#X connect 49 0 19 0;
#X connect 49 0 94 0;
#X connect 51 0 12 0;
#X connect 52 0 55 0;
#X connect 52 0 51 0;
#X connect 52 0 56 0;
#X connect 52 0 57 0;
#X connect 52 0 58 0;
#X connect 52 0 54 0;
#X connect 52 0 94 0;
#X connect 54 0 23 0;
#X connect 55 0 1 0;
#X connect 56 0 73 0;
#X connect 57 0 13 0;
#X connect 58 0 6 0;
#X connect 59 0 52 0;
#X connect 60 0 49 0;
#X connect 61 0 62 0;
#X connect 62 0 44 1;
#X connect 63 0 64 0;
#X connect 63 0 86 1;
#X connect 64 0 6 0;
#X connect 64 0 86 0;
#X connect 65 0 74 0;
#X connect 66 0 8 0;
#X connect 67 0 65 1;
#X connect 68 0 73 0;
#X connect 68 0 12 0;
#X connect 69 0 67 0;
#X connect 69 0 68 0;
#X connect 69 0 72 0;
#X connect 70 0 71 0;
#X connect 71 0 11 1;
#X connect 72 0 70 1;
#X connect 73 0 65 0;
#X connect 74 0 66 0;
#X connect 75 0 6 0;
#X connect 76 0 0 1;
#X connect 77 0 78 0;
#X connect 78 0 79 1;
#X connect 79 0 76 0;
#X connect 80 0 83 0;
#X connect 81 0 82 0;
#X connect 82 0 4 0;
#X connect 83 0 5 0;
#X connect 84 0 86 0;
#X connect 85 0 61 1;
#X connect 86 0 85 0;
#X connect 87 0 84 0;
#X connect 88 0 84 0;
#X connect 89 0 91 0;
#X connect 90 0 91 0;
#X connect 91 0 94 0;
#X connect 92 0 14 2;
#X connect 93 0 13 0;
#X connect 94 0 92 0;
#X connect 95 0 73 0;
#X connect 96 0 12 0;
#X connect 97 0 98 0;
#X connect 98 0 1 0;
#X restore 416 696 pd guit_2;
#X obj 447 622 r reGui_2;
#X obj 744 623 bng 15 250 50 0 empty empty empty 17 7 0 10 -262144
-1 -1;
#X obj 777 642 hsl 128 15 -0.005 0.009 0 0 empty empty empty -2 -8
0 10 -262144 -1 -1 7113 1;
#X text 770 597 vel -0.005 - 0.009;
#X obj 835 688 hsl 128 15 0 5 0 0 empty empty empty -2 -8 0 10 -262144
-1 -1 0 1;
#X text 833 662 Volumen 0 - 5;
#X obj 662 836 hsl 128 15 0 1 0 0 empty empty empty -2 -8 0 10 -262144
-1 -1 9306 1;
#X text 670 809 Posición;
#X obj 836 723 hsl 128 15 0 127 0 0 empty empty empty -2 -8 0 10 -262144
-1 -1 0 1;
#X obj 838 790 hsl 128 15 0 50 0 0 empty empty empty -2 -8 0 10 -262144
-1 -1 0 1;
#X text 838 704 Distorsión 0 - 127;
#X text 839 774 Nivel dist 1 - 50;
#X obj 837 759 hsl 128 15 0 3000 0 0 empty empty empty -2 -8 0 10 -262144
-1 -1 0 1;
#X text 836 740 Distorsión 0 - 3000;
#X obj 842 834 hsl 128 15 0 100 0 0 empty empty empty -2 -8 0 10 -262144
-1 -1 0 1;
#X text 838 815 Reverb 0 - 100;
#N canvas -8 -8 1366 685 guit_3 0;
#X obj 322 361 *~ 1;
#X obj 610 194 vsl 15 128 0 7 0 0 empty empty empty 0 -9 0 10 -262144
-1 -1 544 1;
#X obj 322 425 *~;
#X obj 392 429 vline~;
#X msg 392 385 0.1 500;
#X msg 467 385 0 500;
#X floatatom 432 741 5 0 100 0 - - -;
#X obj 321 27 loadbang;
#X obj 386 476 hsl 128 15 0 127 0 0 empty empty empty -2 -8 0 10 -262144
-1 -1 694 1;
#X obj 382 531 mtof~;
#X obj 383 574 +~;
#X obj 431 530 *~;
#X floatatom 483 542 15 0 0 0 - - -;
#X floatatom 431 707 5 0 0 0 - - -;
#X obj 328 707 vcf~ 440 5;
#X obj 484 509 phasor~;
#X obj 387 639 snapshot~;
#X floatatom 387 667 15 0 0 0 - - -;
#X obj 398 603 receive mt;
#X floatatom 19 49 10 0 0 0 - - -;
#X obj 19 81 expr 44100 / $f1;
#X floatatom 19 115 15 0 0 0 - - -;
#X obj 325 233 phasor~;
#X obj 356 184 hsl 128 15 -0.005 0.009 0 0 empty empty empty -2 -8
0 10 -262144 -1 -1 7113 1;
#X floatatom 367 206 15 0 0 0 - - -;
#X obj 325 271 *~;
#X obj 321 303 tabread4~;
#X obj 500 137 bng 15 250 50 0 empty empty empty 17 7 0 10 -262144
-1 -1;
#X obj 211 436 tgl 15 0 empty empty empty 17 7 0 10 -262144 -1 -1 1
1;
#X obj 214 467 metro 100;
#X obj 214 491 snapshot~;
#X floatatom 214 515 5 0 0 0 - - -;
#X obj 214 557 /;
#X floatatom 214 581 5 0 0 0 - - -;
#X obj 217 683 hsl 128 15 0 1 0 0 empty empty empty -2 -8 0 10 -262144
-1 -1 9306 1;
#X obj 500 81 inlet;
#X obj 552 79 inlet;
#X obj 612 79 inlet;
#X obj 214 716 outlet;
#X obj 664 78 inlet;
#X obj 717 77 inlet;
#X obj 767 76 inlet;
#X obj 816 78 inlet;
#X obj 19 12 r guit_3;
#X obj 19 154 s reGui_3;
#X msg 321 59 set padT6;
#X obj 253 535 r guit_3;
#X obj 365 838 send~ padT6;
#N canvas 484 91 984 756 reverb3 0;
#X obj 36 21 inlet~;
#X obj 243 233 +~;
#X obj 285 233 +~;
#X obj 54 359 outlet~;
#X obj 124 359 outlet~;
#X obj 243 297 +~;
#X obj 348 298 +~;
#X obj 285 297 -~;
#X obj 387 297 -~;
#X obj 242 366 +~;
#X obj 286 367 +~;
#X obj 330 368 -~;
#X obj 369 368 -~;
#X obj 330 450 *~ 0;
#X obj 286 449 *~ 0;
#X obj 242 448 *~ 0;
#X obj 369 451 *~ 0;
#X obj 519 333 inlet;
#X obj 519 405 / 200;
#X obj 519 357 min 100;
#X obj 519 380 max 0;
#X text 256 49 "early echo" generators \, which also increase echo
density. Open one to see what they do., f 44;
#X text 260 128 Get the outputs of the recirculating delays. Add the
inputs to two of them., f 38;
#X text 420 287 Do a power-conserving mix of them in pairs. First combine
(1 \, 2) and (3 \, 4)..., f 41;
#X text 403 361 ...then (1 \, 3) and (2 \, 4), f 14;
#X text 428 444 The two mixing stages have a combined gain of 2 \,
so the recirculation gain is limited to 0.5., f 48;
#X text 34 379 Tap outputs from here.;
#X text 581 348 feedback gain on a scale of 0 to 100 to control reverb
time., f 30;
#X text 539 516 Put the signals back into the recirculating delays.
, f 25;
#X obj 36 45 reverb-echo echo-del1-3 5.43216;
#X obj 36 69 reverb-echo echo-del2-3 8.45346;
#X obj 36 93 reverb-echo echo-del3-3 13.4367;
#X obj 36 117 reverb-echo echo-del4-3 21.5463;
#X obj 36 141 reverb-echo echo-del5-3 34.3876;
#X obj 36 165 reverb-echo echo-del6-3 55.5437;
#X obj 261 172 delread~ loop-del1-3 60;
#X obj 303 198 delread~ loop-del2-3 71.9345;
#X obj 387 224 delread~ loop-del3-3 86.7545;
#X obj 405 249 delread~ loop-del4-3 95.945;
#X obj 369 489 delwrite~ loop-del4-3 95.945;
#X obj 330 513 delwrite~ loop-del3-3 86.7545;
#X obj 286 536 delwrite~ loop-del2-3 71.9345;
#X obj 242 559 delwrite~ loop-del1-3 60;
#X connect 0 0 29 0;
#X connect 1 0 3 0;
#X connect 1 0 5 0;
#X connect 1 0 7 0;
#X connect 2 0 4 0;
#X connect 2 0 5 1;
#X connect 2 0 7 1;
#X connect 5 0 9 0;
#X connect 5 0 11 0;
#X connect 6 0 11 1;
#X connect 6 0 9 1;
#X connect 7 0 10 0;
#X connect 7 0 12 0;
#X connect 8 0 10 1;
#X connect 8 0 12 1;
#X connect 9 0 15 0;
#X connect 10 0 14 0;
#X connect 11 0 13 0;
#X connect 12 0 16 0;
#X connect 13 0 40 0;
#X connect 14 0 41 0;
#X connect 15 0 42 0;
#X connect 16 0 39 0;
#X connect 17 0 19 0;
#X connect 18 0 16 1;
#X connect 18 0 15 1;
#X connect 18 0 14 1;
#X connect 18 0 13 1;
#X connect 19 0 20 0;
#X connect 20 0 18 0;
#X connect 29 0 30 0;
#X connect 29 1 30 1;
#X connect 30 0 31 0;
#X connect 30 1 31 1;
#X connect 31 0 32 0;
#X connect 31 1 32 1;
#X connect 32 0 33 0;
#X connect 32 1 33 1;
#X connect 33 0 34 0;
#X connect 33 1 34 1;
#X connect 34 0 1 0;
#X connect 34 1 2 0;
#X connect 35 0 1 1;
#X connect 36 0 2 1;
#X connect 37 0 6 0;
#X connect 37 0 8 0;
#X connect 38 0 6 1;
#X connect 38 0 8 1;
#X restore 373 789 pd reverb3;
#X obj 734 360 bng 15 250 50 0 empty empty empty 17 7 0 10 -262144
-1 -1;
#X obj 747 632 bng 15 250 50 0 empty empty empty 17 7 0 10 -262144
-1 -1;
#X text 795 613 SET DE NOCHE;
#X msg 712 688 0.0002;
#X obj 771 572 r setNoche;
#X msg 766 687 1.1;
#X msg 801 688 9;
#X msg 836 688 94;
#X msg 869 688 1.2;
#X msg 910 686 1.6;
#X obj 764 311 r setDia;
#X obj 471 832 *;
#X floatatom 471 862 5 0 0 0 - - -;
#X obj 548 718 r modRever;
#X obj 559 759 bng 15 250 50 0 empty empty empty 17 7 0 10 -262144
-1 -1;
#X obj 644 807 *;
#X floatatom 644 868 5 0 0 0 - - -;
#X floatatom 664 778 5 0 0 0 - - -;
#X obj 732 790 bng 15 250 50 0 empty empty empty 17 7 0 10 -262144
-1 -1;
#X obj 721 749 r modDist;
#X obj 756 816 *;
#X floatatom 756 846 5 0 0 0 - - -;
#X floatatom 776 787 5 0 0 0 - - -;
#X obj 654 841 * 0.7;
#X floatatom 623 762 5 0 0 0 - - -;
#X floatatom 341 453 5 0 0 0 - - -;
#X msg 891 415 11;
#X floatatom 400 305 10 0 1 0 - - -;
#X obj 520 208 r volGenHum;
#X floatatom 521 241 5 0 0 0 - - -;
#X obj 510 275 *;
#X obj 526 324 r guitOff;
#X obj 444 327 r guitOn;
#X obj 444 359 bng 15 250 50 0 empty empty empty 17 7 0 10 -262144
-1 -1;
#X obj 527 353 bng 15 250 50 0 empty empty empty 17 7 0 10 -262144
-1 -1;
#X obj 901 793 tgl 15 0 empty empty empty 17 7 0 10 -262144 -1 -1 0
1;
#X floatatom 856 852 5 0 0 0 - - -;
#X obj 856 825 expr if($f1 == 1 \, $f2 \, 0);
#X obj 930 758 r revGuiOn;
#X obj 1009 757 r revGuiOff;
#X obj 1127 769 r distOff;
#X obj 1202 770 r distOn;
#X obj 1157 806 tgl 15 0 empty empty empty 17 7 0 10 -262144 -1 -1
0 1;
#X floatatom 1112 871 5 0 0 0 - - -;
#X obj 1112 838 expr if($f1 == 1 \, $f2 \, 0);
#X msg 788 416 8;
#X msg 856 416 2;
#X msg 823 418 100;
#X obj 875 346 r volGuit;
#X msg 752 415 0.3;
#X connect 0 0 2 0;
#X connect 1 0 79 0;
#X connect 2 0 14 0;
#X connect 3 0 2 1;
#X connect 4 0 3 0;
#X connect 5 0 3 0;
#X connect 6 0 60 0;
#X connect 7 0 45 0;
#X connect 7 0 4 0;
#X connect 7 0 28 0;
#X connect 7 0 49 0;
#X connect 8 0 9 0;
#X connect 9 0 10 0;
#X connect 9 0 16 0;
#X connect 9 0 15 0;
#X connect 10 0 14 1;
#X connect 11 0 10 1;
#X connect 12 0 69 0;
#X connect 13 0 93 1;
#X connect 14 0 47 0;
#X connect 14 0 48 0;
#X connect 15 0 11 0;
#X connect 16 0 17 0;
#X connect 18 0 16 0;
#X connect 19 0 20 0;
#X connect 20 0 21 0;
#X connect 21 0 22 0;
#X connect 21 0 23 0;
#X connect 21 0 44 0;
#X connect 22 0 25 0;
#X connect 23 0 24 0;
#X connect 24 0 22 0;
#X connect 25 0 26 0;
#X connect 25 0 30 0;
#X connect 26 0 0 0;
#X connect 27 0 19 0;
#X connect 27 0 49 0;
#X connect 28 0 29 0;
#X connect 29 0 30 0;
#X connect 30 0 31 0;
#X connect 31 0 32 0;
#X connect 32 0 33 0;
#X connect 33 0 34 0;
#X connect 34 0 38 0;
#X connect 35 0 27 0;
#X connect 36 0 23 0;
#X connect 37 0 1 0;
#X connect 39 0 74 0;
#X connect 40 0 13 0;
#X connect 41 0 12 0;
#X connect 42 0 6 0;
#X connect 43 0 19 0;
#X connect 43 0 25 1;
#X connect 45 0 26 0;
#X connect 46 0 32 1;
#X connect 48 1 47 0;
#X connect 49 0 98 0;
#X connect 49 0 96 0;
#X connect 49 0 94 0;
#X connect 49 0 95 0;
#X connect 49 0 75 0;
#X connect 49 0 19 0;
#X connect 49 0 93 0;
#X connect 50 0 54 0;
#X connect 50 0 56 0;
#X connect 50 0 55 0;
#X connect 50 0 57 0;
#X connect 50 0 58 0;
#X connect 50 0 52 0;
#X connect 50 0 93 0;
#X connect 52 0 23 0;
#X connect 53 0 50 0;
#X connect 54 0 1 0;
#X connect 55 0 73 0;
#X connect 56 0 12 0;
#X connect 57 0 13 0;
#X connect 58 0 6 0;
#X connect 59 0 49 0;
#X connect 60 0 61 0;
#X connect 61 0 48 1;
#X connect 62 0 63 0;
#X connect 62 0 86 1;
#X connect 63 0 6 0;
#X connect 63 0 86 0;
#X connect 64 0 72 0;
#X connect 65 0 8 0;
#X connect 66 0 64 1;
#X connect 67 0 73 0;
#X connect 67 0 12 0;
#X connect 68 0 66 0;
#X connect 68 0 67 0;
#X connect 68 0 71 0;
#X connect 69 0 70 0;
#X connect 70 0 11 1;
#X connect 71 0 69 1;
#X connect 72 0 65 0;
#X connect 73 0 64 0;
#X connect 74 0 8 0;
#X connect 75 0 6 0;
#X connect 76 0 0 1;
#X connect 77 0 78 0;
#X connect 78 0 79 1;
#X connect 79 0 76 0;
#X connect 80 0 83 0;
#X connect 81 0 82 0;
#X connect 82 0 4 0;
#X connect 83 0 5 0;
#X connect 84 0 86 0;
#X connect 85 0 60 1;
#X connect 86 0 85 0;
#X connect 87 0 84 0;
#X connect 88 0 84 0;
#X connect 89 0 91 0;
#X connect 90 0 91 0;
#X connect 91 0 93 0;
#X connect 92 0 14 2;
#X connect 93 0 92 0;
#X connect 94 0 73 0;
#X connect 95 0 13 0;
#X connect 96 0 12 0;
#X connect 97 0 98 0;
#X connect 98 0 1 0;
#X restore 744 694 pd guit_3;
#X obj 775 620 r reGui_3;
#X text 741 578 vel original;
#N canvas -8 -8 1366 685 guit_1 0;
#X obj 325 333 *~ 1;
#X obj 611 194 vsl 15 128 0 10 0 0 empty empty empty 0 -9 0 10 -262144
-1 -1 254 1;
#X floatatom 712 275 10 0 1 0 - - -;
#X obj 325 397 *~;
#X obj 395 401 vline~;
#X msg 395 357 0.1 500;
#X msg 470 357 0 500;
#X msg 321 120 set padT4;
#X obj 365 838 send~ padT4;
#N canvas -547 242 931 678 reverb1 0;
#X obj 36 21 inlet~;
#X obj 36 45 reverb-echo echo-del1 5.43216;
#X obj 243 233 +~;
#X obj 285 233 +~;
#X obj 54 359 outlet~;
#X obj 124 359 outlet~;
#X obj 243 297 +~;
#X obj 348 298 +~;
#X obj 285 297 -~;
#X obj 387 297 -~;
#X obj 242 366 +~;
#X obj 286 367 +~;
#X obj 330 368 -~;
#X obj 369 368 -~;
#X obj 330 450 *~ 0;
#X obj 286 449 *~ 0;
#X obj 242 448 *~ 0;
#X obj 369 451 *~ 0;
#X obj 519 333 inlet;
#X obj 519 405 / 200;
#X obj 519 357 min 100;
#X obj 519 380 max 0;
#X obj 242 559 delwrite~ loop-del1 60;
#X obj 286 536 delwrite~ loop-del2 71.9345;
#X obj 369 489 delwrite~ loop-del4 95.945;
#X obj 261 172 delread~ loop-del1 60;
#X obj 303 198 delread~ loop-del2 71.9345;
#X obj 405 249 delread~ loop-del4 95.945;
#X obj 387 224 delread~ loop-del3 86.7545;
#X obj 330 513 delwrite~ loop-del3 86.7545;
#X obj 36 69 reverb-echo echo-del2 8.45346;
#X obj 36 93 reverb-echo echo-del3 13.4367;
#X obj 36 117 reverb-echo echo-del4 21.5463;
#X obj 36 141 reverb-echo echo-del5 34.3876;
#X obj 36 165 reverb-echo echo-del6 55.5437;
#X text 256 49 "early echo" generators \, which also increase echo
density. Open one to see what they do., f 44;
#X text 260 128 Get the outputs of the recirculating delays. Add the
inputs to two of them., f 38;
#X text 420 287 Do a power-conserving mix of them in pairs. First combine
(1 \, 2) and (3 \, 4)..., f 41;
#X text 403 361 ...then (1 \, 3) and (2 \, 4), f 14;
#X text 428 444 The two mixing stages have a combined gain of 2 \,
so the recirculation gain is limited to 0.5., f 48;
#X text 34 379 Tap outputs from here.;
#X text 581 348 feedback gain on a scale of 0 to 100 to control reverb
time., f 30;
#X text 539 516 Put the signals back into the recirculating delays.
, f 25;
#X connect 0 0 1 0;
#X connect 1 0 30 0;
#X connect 1 1 30 1;
#X connect 2 0 4 0;
#X connect 2 0 6 0;
#X connect 2 0 8 0;
#X connect 3 0 5 0;
#X connect 3 0 6 1;
#X connect 3 0 8 1;
#X connect 6 0 10 0;
#X connect 6 0 12 0;
#X connect 7 0 12 1;
#X connect 7 0 10 1;
#X connect 8 0 11 0;
#X connect 8 0 13 0;
#X connect 9 0 11 1;
#X connect 9 0 13 1;
#X connect 10 0 16 0;
#X connect 11 0 15 0;
#X connect 12 0 14 0;
#X connect 13 0 17 0;
#X connect 14 0 29 0;
#X connect 15 0 23 0;
#X connect 16 0 22 0;
#X connect 17 0 24 0;
#X connect 18 0 20 0;
#X connect 19 0 17 1;
#X connect 19 0 16 1;
#X connect 19 0 15 1;
#X connect 19 0 14 1;
#X connect 20 0 21 0;
#X connect 21 0 19 0;
#X connect 25 0 2 1;
#X connect 26 0 3 1;
#X connect 27 0 7 1;
#X connect 27 0 9 1;
#X connect 28 0 7 0;
#X connect 28 0 9 0;
#X connect 30 0 31 0;
#X connect 30 1 31 1;
#X connect 31 0 32 0;
#X connect 31 1 32 1;
#X connect 32 0 33 0;
#X connect 32 1 33 1;
#X connect 33 0 34 0;
#X connect 33 1 34 1;
#X connect 34 0 2 0;
#X connect 34 1 3 0;
#X restore 365 795 pd reverb1;
#X floatatom 432 741 5 0 100 0 - - -;
#X obj 321 27 loadbang;
#X obj 386 476 hsl 128 15 0 127 0 0 empty empty empty -2 -8 0 10 -262144
-1 -1 992 1;
#X obj 382 531 mtof~;
#X obj 383 574 +~;
#X obj 441 544 *~;
#X floatatom 483 542 15 0 0 0 - - -;
#X floatatom 1110 608 5 0 0 0 - - -;
#X obj 328 707 vcf~ 440 5;
#X obj 484 509 phasor~;
#X obj 387 639 snapshot~;
#X floatatom 387 667 15 0 0 0 - - -;
#X obj 398 603 receive mt;
#X floatatom 19 49 10 0 0 0 - - -;
#X obj 19 12 r guit_1;
#X obj 19 81 expr 44100 / $f1;
#X floatatom 19 115 15 0 0 0 - - -;
#X obj 328 205 phasor~;
#X obj 359 156 hsl 128 15 -0.005 0.009 0 0 empty empty empty -2 -8
0 10 -262144 -1 -1 7113 1;
#X floatatom 356 176 15 0 0 0 - - -;
#X obj 328 243 *~;
#X obj 324 275 tabread4~;
#X obj 500 137 bng 15 250 50 0 empty empty empty 17 7 0 10 -262144
-1 -1;
#X obj 214 408 tgl 15 0 empty empty empty 17 7 0 10 -262144 -1 -1 1
1;
#X obj 214 467 metro 100;
#X obj 214 491 snapshot~;
#X floatatom 214 515 5 0 0 0 - - -;
#X obj 214 557 /;
#X floatatom 214 581 5 0 0 0 - - -;
#X obj 253 535 r guit_1;
#X obj 217 683 hsl 128 15 0 1 0 0 empty empty empty -2 -8 0 10 -262144
-1 -1 9306 1;
#X obj 500 81 inlet;
#X obj 552 79 inlet;
#X obj 19 154 s reGui_1;
#X obj 612 79 inlet;
#X obj 214 716 outlet;
#X obj 664 78 inlet;
#X obj 717 77 inlet;
#X obj 767 76 inlet;
#X obj 816 78 inlet;
#X obj 734 360 bng 15 250 50 0 empty empty empty 17 7 0 10 -262144
-1 -1;
#X msg 842 610 189;
#X obj 753 554 bng 15 250 50 0 empty empty empty 17 7 0 10 -262144
-1 -1;
#X msg 807 610 10;
#X msg 875 610 2.5;
#X msg 910 608 7.9;
#X text 763 322 SET DE DIA;
#X text 801 535 SET DE NOCHE;
#X msg 772 609 0.89;
#X msg 718 610 0.0002;
#X obj 837 492 r setNoche;
#X obj 775 352 r setDia;
#X obj 469 821 *;
#X floatatom 469 851 5 0 0 0 - - -;
#X obj 558 712 r modRever;
#X obj 557 743 bng 15 250 50 0 empty empty empty 17 7 0 10 -262144
-1 -1;
#X obj 749 791 *;
#X floatatom 749 821 5 0 0 0 - - -;
#X floatatom 769 762 5 0 0 0 - - -;
#X obj 837 774 bng 15 250 50 0 empty empty empty 17 7 0 10 -262144
-1 -1;
#X obj 739 681 r modDist;
#X floatatom 862 711 5 0 0 0 - - -;
#X obj 861 800 *;
#X floatatom 861 830 5 0 0 0 - - -;
#X floatatom 881 771 5 0 0 0 - - -;
#X msg 891 414 11;
#X obj 832 178 r volGenHum;
#X floatatom 833 211 5 0 0 0 - - -;
#X obj 822 245 *;
#X obj 494 244 r guitOff;
#X obj 414 248 r guitOn;
#X obj 414 280 bng 15 250 50 0 empty empty empty 17 7 0 10 -262144
-1 -1;
#X obj 495 273 bng 15 250 50 0 empty empty empty 17 7 0 10 -262144
-1 -1;
#X obj 579 776 tgl 15 0 empty empty empty 17 7 0 10 -262144 -1 -1 0
1;
#X floatatom 534 835 5 0 0 0 - - -;
#X obj 534 808 expr if($f1 == 1 \, $f2 \, 0);
#X obj 608 741 r revGuiOn;
#X obj 687 740 r revGuiOff;
#X obj 1127 769 r distOff;
#X obj 1202 770 r distOn;
#X obj 1157 806 tgl 15 0 empty empty empty 17 7 0 10 -262144 -1 -1
0 1;
#X floatatom 1109 869 5 0 0 0 - - -;
#X msg 856 417 2;
#X obj 1112 838 expr if($f1 == 1 \, $f2 \, 0);
#X msg 788 416 8;
#X msg 823 416 100;
#X obj 912 292 r volGuit;
#X msg 753 415 0.2;
#X connect 0 0 3 0;
#X connect 1 0 78 0;
#X connect 2 0 0 1;
#X connect 3 0 18 0;
#X connect 4 0 3 1;
#X connect 5 0 4 0;
#X connect 6 0 4 0;
#X connect 7 0 31 0;
#X connect 9 1 8 0;
#X connect 10 0 62 0;
#X connect 11 0 7 0;
#X connect 11 0 5 0;
#X connect 11 0 33 0;
#X connect 11 0 50 0;
#X connect 12 0 13 0;
#X connect 13 0 14 0;
#X connect 13 0 20 0;
#X connect 13 0 19 0;
#X connect 14 0 18 1;
#X connect 15 0 14 1;
#X connect 16 0 72 0;
#X connect 17 0 93 1;
#X connect 18 0 9 0;
#X connect 18 0 8 0;
#X connect 19 0 15 0;
#X connect 20 0 21 0;
#X connect 22 0 20 0;
#X connect 23 0 25 0;
#X connect 24 0 23 0;
#X connect 24 0 30 1;
#X connect 25 0 26 0;
#X connect 26 0 27 0;
#X connect 26 0 28 0;
#X connect 26 0 43 0;
#X connect 27 0 30 0;
#X connect 28 0 29 0;
#X connect 29 0 27 0;
#X connect 30 0 31 0;
#X connect 30 0 35 0;
#X connect 31 0 0 0;
#X connect 32 0 23 0;
#X connect 32 0 50 0;
#X connect 33 0 34 0;
#X connect 34 0 35 0;
#X connect 35 0 36 0;
#X connect 36 0 37 0;
#X connect 37 0 38 0;
#X connect 38 0 40 0;
#X connect 39 0 37 1;
#X connect 40 0 45 0;
#X connect 41 0 32 0;
#X connect 42 0 28 0;
#X connect 44 0 1 0;
#X connect 46 0 12 0;
#X connect 47 0 17 0;
#X connect 48 0 16 0;
#X connect 49 0 10 0;
#X connect 50 0 97 0;
#X connect 50 0 95 0;
#X connect 50 0 94 0;
#X connect 50 0 92 0;
#X connect 50 0 75 0;
#X connect 50 0 23 0;
#X connect 50 0 93 0;
#X connect 51 0 16 0;
#X connect 52 0 58 0;
#X connect 52 0 51 0;
#X connect 52 0 53 0;
#X connect 52 0 54 0;
#X connect 52 0 55 0;
#X connect 52 0 59 0;
#X connect 52 0 93 0;
#X connect 53 0 71 0;
#X connect 54 0 17 0;
#X connect 55 0 10 0;
#X connect 58 0 1 0;
#X connect 59 0 28 0;
#X connect 60 0 52 0;
#X connect 61 0 50 0;
#X connect 62 0 63 0;
#X connect 63 0 9 1;
#X connect 64 0 65 0;
#X connect 64 0 85 1;
#X connect 65 0 10 0;
#X connect 65 0 85 0;
#X connect 66 0 67 0;
#X connect 67 0 12 0;
#X connect 68 0 66 1;
#X connect 69 0 71 0;
#X connect 69 0 16 0;
#X connect 70 0 68 0;
#X connect 70 0 69 0;
#X connect 70 0 74 0;
#X connect 71 0 66 0;
#X connect 72 0 73 0;
#X connect 73 0 15 1;
#X connect 74 0 72 1;
#X connect 75 0 10 0;
#X connect 76 0 77 0;
#X connect 77 0 78 1;
#X connect 78 0 2 0;
#X connect 79 0 82 0;
#X connect 80 0 81 0;
#X connect 81 0 5 0;
#X connect 82 0 6 0;
#X connect 83 0 85 0;
#X connect 84 0 62 1;
#X connect 85 0 84 0;
#X connect 86 0 83 0;
#X connect 87 0 83 0;
#X connect 88 0 90 0;
#X connect 89 0 90 0;
#X connect 90 0 93 0;
#X connect 91 0 18 2;
#X connect 92 0 17 0;
#X connect 93 0 91 0;
#X connect 94 0 71 0;
#X connect 95 0 16 0;
#X connect 96 0 97 0;
#X connect 97 0 1 0;
#X restore 78 693 pd guit_1;
#X obj 78 622 bng 15 250 50 0 empty empty empty 17 7 0 10 -262144 -1
-1;
#X text 44 577 vel original;
#X obj 111 641 hsl 128 15 -0.005 0.009 0 0 empty empty empty -2 -8
0 10 -262144 -1 -1 7113 1;
#X text 104 596 vel -0.005 - 0.009;
#X obj 109 619 r reGui_1;
#X obj 169 687 hsl 128 15 0 8 0 0 empty empty empty -2 -8 0 10 -262144
-1 -1 0 1;
#X obj 9 833 hsl 128 15 0 1 0 0 empty empty empty -2 -8 0 10 -262144
-1 -1 9306 1;
#X text 4 808 Posición;
#X obj 170 722 hsl 128 15 0 127 0 0 empty empty empty -2 -8 0 10 -262144
-1 -1 0 1;
#X obj 172 789 hsl 128 15 0 50 0 0 empty empty empty -2 -8 0 10 -262144
-1 -1 0 1;
#X text 172 703 Distorsión 0 - 127;
#X text 173 773 Nivel dist 1 - 50;
#X obj 171 758 hsl 128 15 0 3000 0 0 empty empty empty -2 -8 0 10 -262144
-1 -1 0 1;
#X text 170 739 Distorsión 0 - 3000;
#X obj 176 833 hsl 128 15 0 100 0 0 empty empty empty -2 -8 0 10 -262144
-1 -1 0 1;
#X text 172 814 Reverb 0 - 100;
#X obj 1592 600 bng 15 250 50 0 empty empty empty 17 7 0 10 -262144
-1 -1;
#X obj 1625 619 hsl 128 15 -0.005 0.009 0 0 empty empty empty -2 -8
0 10 -262144 -1 -1 7113 1;
#X text 1618 574 vel -0.005 - 0.009;
#X obj 1706 665 hsl 128 15 0 5 0 0 empty empty empty -2 -8 0 10 -262144
-1 -1 0 1;
#X text 1704 639 Volumen 0 - 5;
#X obj 1510 813 hsl 128 15 0 1 0 0 empty empty empty -2 -8 0 10 -262144
-1 -1 9306 1;
#X text 1518 786 Posición;
#X obj 1707 700 hsl 128 15 0 127 0 0 empty empty empty -2 -8 0 10 -262144
-1 -1 0 1;
#X obj 1709 767 hsl 128 15 0 50 0 0 empty empty empty -2 -8 0 10 -262144
-1 -1 0 1;
#X text 1709 681 Distorsión 0 - 127;
#X text 1710 751 Nivel dist 1 - 50;
#X obj 1708 736 hsl 128 15 0 3000 0 0 empty empty empty -2 -8 0 10
-262144 -1 -1 0 1;
#X text 1707 717 Distorsión 0 - 3000;
#X text 1589 555 vel original;
#N canvas -8 -8 1366 725 antiGui_1 0;
#X obj 322 361 *~ 1;
#X obj 611 194 vsl 15 128 0 5 0 0 empty empty empty 0 -9 0 10 -262144
-1 -1 7620 1;
#X obj 322 425 *~;
#X obj 392 429 vline~;
#X msg 392 385 0.1 500;
#X msg 467 385 0 500;
#X obj 321 27 loadbang;
#X obj 386 476 hsl 128 15 0 127 0 0 empty empty empty -2 -8 0 10 -262144
-1 -1 900 1;
#X obj 382 531 mtof~;
#X obj 383 574 +~;
#X obj 431 530 *~;
#X floatatom 483 542 15 0 0 0 - - -;
#X floatatom 431 707 5 0 0 0 - - -;
#X obj 484 509 phasor~;
#X obj 387 639 snapshot~;
#X floatatom 387 667 15 0 0 0 - - -;
#X obj 398 603 receive mt;
#X floatatom 19 49 10 0 0 0 - - -;
#X obj 19 81 expr 44100 / $f1;
#X floatatom 19 115 15 0 0 0 - - -;
#X obj 325 233 phasor~;
#X obj 356 184 hsl 128 15 -0.005 0.009 0 0 empty empty empty -2 -8
0 10 -262144 -1 -1 7113 1;
#X floatatom 353 204 15 0 0 0 - - -;
#X obj 325 271 *~;
#X obj 321 303 tabread4~;
#X obj 500 137 bng 15 250 50 0 empty empty empty 17 7 0 10 -262144
-1 -1;
#X obj 211 436 tgl 15 0 empty empty empty 17 7 0 10 -262144 -1 -1 1
1;
#X obj 214 467 metro 100;
#X obj 214 491 snapshot~;
#X floatatom 214 515 5 0 0 0 - - -;
#X obj 214 557 /;
#X floatatom 214 581 5 0 0 0 - - -;
#X obj 217 683 hsl 128 15 0 1 0 0 empty empty empty -2 -8 0 10 -262144
-1 -1 9306 1;
#X obj 500 81 inlet;
#X obj 552 79 inlet;
#X obj 612 79 inlet;
#X obj 214 716 outlet;
#X obj 664 78 inlet;
#X obj 717 77 inlet;
#X obj 767 76 inlet;
#X obj 19 12 r antiGui_1;
#X obj 19 154 s reAntiGui_1;
#X obj 253 535 r antiGui_1;
#X obj 365 838 send~ padT10;
#X obj 328 707 vcf~ 440 1;
#X msg 321 59 set padT10;
#X obj 675 532 bng 15 250 50 0 empty empty empty 17 7 0 10 -262144
-1 -1;
#X floatatom 350 504 5 0 0 0 - - -;
#X msg 729 588 9;
#X msg 764 588 2385;
#X msg 808 588 6.3;
#X text 770 531 SET DE DIA;
#X obj 740 478 r setDia;
#X obj 683 727 bng 15 250 50 0 empty empty empty 17 7 0 10 -262144
-1 -1;
#X text 731 708 SET DE NOCHE;
#X msg 648 783 0.0002;
#X obj 707 667 r setNoche;
#X msg 743 781 9;
#X msg 772 783 2385;
#X msg 805 783 6.3;
#X msg 704 781 0.6;
#X floatatom 489 281 10 0 1 0 - - -;
#X obj 500 182 r volGenHum;
#X floatatom 501 215 5 0 0 0 - - -;
#X obj 490 249 *;
#X obj 478 314 r guiEspOff;
#X obj 393 322 r guiEspOn;
#X obj 478 348 bng 15 250 50 0 empty empty empty 17 7 0 10 -262144
-1 -1;
#X obj 392 358 bng 15 250 50 0 empty empty empty 17 7 0 10 -262144
-1 -1;
#X obj 519 791 tgl 15 0 empty empty empty 17 7 0 10 -262144 -1 -1 0
1;
#X floatatom 471 854 5 0 0 0 - - -;
#X obj 474 823 expr if($f1 == 1 \, $f2 \, 1);
#X obj 429 756 r distEspOff;
#X obj 529 755 r distEspOn;
#X msg 693 587 3;
#X connect 0 0 2 0;
#X connect 1 0 64 0;
#X connect 2 0 44 0;
#X connect 3 0 2 1;
#X connect 4 0 3 0;
#X connect 5 0 3 0;
#X connect 6 0 45 0;
#X connect 6 0 4 0;
#X connect 6 0 26 0;
#X connect 6 0 46 0;
#X connect 7 0 8 0;
#X connect 7 0 47 0;
#X connect 8 0 9 0;
#X connect 8 0 14 0;
#X connect 8 0 13 0;
#X connect 9 0 44 1;
#X connect 10 0 9 1;
#X connect 11 0 10 1;
#X connect 12 0 71 1;
#X connect 13 0 10 0;
#X connect 14 0 15 0;
#X connect 16 0 14 0;
#X connect 17 0 18 0;
#X connect 18 0 19 0;
#X connect 19 0 20 0;
#X connect 19 0 21 0;
#X connect 19 0 41 0;
#X connect 20 0 23 0;
#X connect 21 0 22 0;
#X connect 22 0 20 0;
#X connect 23 0 24 0;
#X connect 23 0 28 0;
#X connect 24 0 0 0;
#X connect 25 0 17 0;
#X connect 25 0 46 0;
#X connect 26 0 27 0;
#X connect 27 0 28 0;
#X connect 28 0 29 0;
#X connect 29 0 30 0;
#X connect 30 0 31 0;
#X connect 31 0 32 0;
#X connect 32 0 36 0;
#X connect 33 0 25 0;
#X connect 34 0 21 0;
#X connect 35 0 1 0;
#X connect 37 0 7 0;
#X connect 38 0 12 0;
#X connect 39 0 11 0;
#X connect 40 0 17 0;
#X connect 40 0 23 1;
#X connect 42 0 30 1;
#X connect 44 0 43 0;
#X connect 45 0 24 0;
#X connect 46 0 74 0;
#X connect 46 0 49 0;
#X connect 46 0 48 0;
#X connect 46 0 50 0;
#X connect 46 0 17 0;
#X connect 46 0 71 0;
#X connect 48 0 7 0;
#X connect 49 0 11 0;
#X connect 50 0 12 0;
#X connect 52 0 46 0;
#X connect 53 0 60 0;
#X connect 53 0 58 0;
#X connect 53 0 57 0;
#X connect 53 0 59 0;
#X connect 53 0 55 0;
#X connect 53 0 71 0;
#X connect 55 0 21 0;
#X connect 56 0 53 0;
#X connect 57 0 7 0;
#X connect 58 0 11 0;
#X connect 59 0 12 0;
#X connect 60 0 1 0;
#X connect 61 0 0 1;
#X connect 62 0 63 0;
#X connect 63 0 64 1;
#X connect 64 0 61 0;
#X connect 65 0 67 0;
#X connect 66 0 68 0;
#X connect 67 0 5 0;
#X connect 68 0 4 0;
#X connect 69 0 71 0;
#X connect 70 0 44 2;
#X connect 71 0 70 0;
#X connect 72 0 69 0;
#X connect 73 0 69 0;
#X connect 74 0 1 0;
#X restore 1592 671 pd antiGui_1;
#X obj 1623 597 r reAntiGui_1;
#X obj 1946 609 bng 15 250 50 0 empty empty empty 17 7 0 10 -262144
-1 -1;
#X obj 1979 628 hsl 128 15 -0.005 0.009 0 0 empty empty empty -2 -8
0 10 -262144 -1 -1 7113 1;
#X text 1972 583 vel -0.005 - 0.009;
#X obj 2060 674 hsl 128 15 0 5 0 0 empty empty empty -2 -8 0 10 -262144
-1 -1 0 1;
#X text 2058 648 Volumen 0 - 5;
#X obj 1864 822 hsl 128 15 0 1 0 0 empty empty empty -2 -8 0 10 -262144
-1 -1 9306 1;
#X text 1872 795 Posición;
#X obj 2061 709 hsl 128 15 0 127 0 0 empty empty empty -2 -8 0 10 -262144
-1 -1 0 1;
#X obj 2063 776 hsl 128 15 0 50 0 0 empty empty empty -2 -8 0 10 -262144
-1 -1 0 1;
#X text 2063 690 Distorsión 0 - 127;
#X text 2064 760 Nivel dist 1 - 50;
#X obj 2062 745 hsl 128 15 0 3000 0 0 empty empty empty -2 -8 0 10
-262144 -1 -1 0 1;
#X text 2061 726 Distorsión 0 - 3000;
#X text 1943 564 vel original;
#X obj 1977 606 r reAntiGui_2;
#N canvas -8 -8 1366 725 antiGui_2 0;
#X obj 322 361 *~ 1;
#X obj 611 194 vsl 15 128 0 20 0 0 empty empty empty 0 -9 0 10 -262144
-1 -1 1905 1;
#X obj 322 425 *~;
#X obj 392 429 vline~;
#X msg 392 385 0.1 500;
#X msg 467 385 0 500;
#X obj 321 27 loadbang;
#X obj 386 476 hsl 128 15 0 127 0 0 empty empty empty -2 -8 0 10 -262144
-1 -1 1800 1;
#X obj 382 531 mtof~;
#X obj 383 574 +~;
#X obj 432 544 *~;
#X floatatom 543 576 15 0 0 0 - - -;
#X floatatom 431 707 5 0 0 0 - - -;
#X obj 484 509 phasor~;
#X obj 387 639 snapshot~;
#X floatatom 387 667 15 0 0 0 - - -;
#X obj 398 603 receive mt;
#X floatatom 19 49 10 0 0 0 - - -;
#X obj 19 81 expr 44100 / $f1;
#X floatatom 19 115 15 0 0 0 - - -;
#X obj 325 233 phasor~;
#X obj 356 184 hsl 128 15 -0.005 0.009 0 0 empty empty empty -2 -8
0 10 -262144 -1 -1 7113 1;
#X floatatom 353 204 15 0 0 0 - - -;
#X obj 325 271 *~;
#X obj 321 303 tabread4~;
#X obj 500 137 bng 15 250 50 0 empty empty empty 17 7 0 10 -262144
-1 -1;
#X obj 211 436 tgl 15 0 empty empty empty 17 7 0 10 -262144 -1 -1 1
1;
#X obj 214 467 metro 100;
#X obj 214 491 snapshot~;
#X floatatom 214 515 5 0 0 0 - - -;
#X obj 214 557 /;
#X floatatom 214 581 5 0 0 0 - - -;
#X obj 217 683 hsl 128 15 0 1 0 0 empty empty empty -2 -8 0 10 -262144
-1 -1 9306 1;
#X obj 500 81 inlet;
#X obj 552 79 inlet;
#X obj 612 79 inlet;
#X obj 214 716 outlet;
#X obj 664 78 inlet;
#X obj 717 77 inlet;
#X obj 767 76 inlet;
#X obj 328 707 vcf~ 440 1;
#X obj 19 12 r antiGui_2;
#X obj 19 154 s reAntiGui_2;
#X obj 253 535 r antiGui_2;
#X msg 321 59 set padT11;
#X obj 365 838 send~ padT11;
#X obj 675 532 bng 15 250 50 0 empty empty empty 17 7 0 10 -262144
-1 -1;
#X floatatom 362 510 5 0 0 0 - - -;
#X msg 728 587 18;
#X msg 764 588 165.4;
#X text 752 502 SET DE DIA;
#X obj 701 450 r setDia;
#X obj 683 727 bng 15 250 50 0 empty empty empty 17 7 0 10 -262144
-1 -1;
#X text 731 708 SET DE NOCHE;
#X msg 648 783 0.0002;
#X obj 707 667 r setNoche;
#X msg 743 781 18;
#X msg 772 783 165.4;
#X msg 828 783 2.8;
#X msg 704 781 0.9;
#X floatatom 469 304 10 0 1 0 - - -;
#X obj 482 202 r volGenHum;
#X floatatom 483 235 5 0 0 0 - - -;
#X obj 472 269 *;
#X obj 679 350 r guiEspOff;
#X obj 594 358 r guiEspOn;
#X obj 679 384 bng 15 250 50 0 empty empty empty 17 7 0 10 -262144
-1 -1;
#X obj 593 394 bng 15 250 50 0 empty empty empty 17 7 0 10 -262144
-1 -1;
#X obj 519 791 tgl 15 0 empty empty empty 17 7 0 10 -262144 -1 -1 0
1;
#X floatatom 471 854 5 0 0 0 - - -;
#X obj 474 823 expr if($f1 == 1 \, $f2 \, 1);
#X obj 429 756 r distEspOff;
#X obj 529 755 r distEspOn;
#X msg 808 588 4;
#X msg 693 587 3;
#X connect 0 0 2 0;
#X connect 1 0 63 0;
#X connect 2 0 40 0;
#X connect 3 0 2 1;
#X connect 4 0 3 0;
#X connect 5 0 3 0;
#X connect 6 0 44 0;
#X connect 6 0 4 0;
#X connect 6 0 26 0;
#X connect 6 0 46 0;
#X connect 7 0 8 0;
#X connect 7 0 47 0;
#X connect 8 0 9 0;
#X connect 8 0 14 0;
#X connect 8 0 13 0;
#X connect 9 0 40 1;
#X connect 10 0 9 1;
#X connect 11 0 10 1;
#X connect 12 0 70 1;
#X connect 13 0 10 0;
#X connect 14 0 15 0;
#X connect 16 0 14 0;
#X connect 17 0 18 0;
#X connect 18 0 19 0;
#X connect 19 0 20 0;
#X connect 19 0 21 0;
#X connect 19 0 42 0;
#X connect 20 0 23 0;
#X connect 21 0 22 0;
#X connect 22 0 20 0;
#X connect 23 0 24 0;
#X connect 23 0 28 0;
#X connect 24 0 0 0;
#X connect 25 0 17 0;
#X connect 25 0 46 0;
#X connect 26 0 27 0;
#X connect 27 0 28 0;
#X connect 28 0 29 0;
#X connect 29 0 30 0;
#X connect 30 0 31 0;
#X connect 31 0 32 0;
#X connect 32 0 36 0;
#X connect 33 0 25 0;
#X connect 34 0 21 0;
#X connect 35 0 1 0;
#X connect 37 0 7 0;
#X connect 38 0 12 0;
#X connect 39 0 11 0;
#X connect 40 0 45 0;
#X connect 41 0 17 0;
#X connect 41 0 23 1;
#X connect 43 0 30 1;
#X connect 44 0 24 0;
#X connect 46 0 74 0;
#X connect 46 0 49 0;
#X connect 46 0 48 0;
#X connect 46 0 73 0;
#X connect 46 0 17 0;
#X connect 46 0 70 0;
#X connect 48 0 7 0;
#X connect 49 0 11 0;
#X connect 51 0 46 0;
#X connect 52 0 59 0;
#X connect 52 0 57 0;
#X connect 52 0 56 0;
#X connect 52 0 58 0;
#X connect 52 0 54 0;
#X connect 52 0 70 0;
#X connect 54 0 21 0;
#X connect 55 0 52 0;
#X connect 56 0 7 0;
#X connect 57 0 11 0;
#X connect 58 0 12 0;
#X connect 59 0 1 0;
#X connect 60 0 0 1;
#X connect 61 0 62 0;
#X connect 62 0 63 1;
#X connect 63 0 60 0;
#X connect 64 0 66 0;
#X connect 65 0 67 0;
#X connect 66 0 5 0;
#X connect 67 0 4 0;
#X connect 68 0 70 0;
#X connect 69 0 40 2;
#X connect 70 0 69 0;
#X connect 71 0 68 0;
#X connect 72 0 68 0;
#X connect 73 0 12 0;
#X connect 74 0 1 0;
#X restore 1946 680 pd antiGui_2;
#X obj 1169 606 bng 15 250 50 0 empty empty empty 17 7 0 10 -262144
-1 -1;
#X obj 1202 625 hsl 128 15 -0.005 0.009 0 0 empty empty empty -2 -8
0 10 -262144 -1 -1 7113 1;
#X text 1195 580 vel -0.005 - 0.009;
#X obj 1283 671 hsl 128 15 0 5 0 0 empty empty empty -2 -8 0 10 -262144
-1 -1 0 1;
#X text 1281 645 Volumen 0 - 5;
#X obj 1122 808 hsl 128 15 0 1 0 0 empty empty empty -2 -8 0 10 -262144
-1 -1 9306 1;
#X text 1130 781 Posición;
#X obj 1284 706 hsl 128 15 0 127 0 0 empty empty empty -2 -8 0 10 -262144
-1 -1 0 1;
#X obj 1286 773 hsl 128 15 0 50 0 0 empty empty empty -2 -8 0 10 -262144
-1 -1 0 1;
#X text 1286 687 Distorsión 0 - 127;
#X text 1287 757 Nivel dist 1 - 50;
#X obj 1285 742 hsl 128 15 0 3000 0 0 empty empty empty -2 -8 0 10
-262144 -1 -1 0 1;
#X text 1284 723 Distorsión 0 - 3000;
#X text 1166 561 vel original;
#X obj 1200 603 r reMarMala;
#N canvas -8 -8 1366 725 marMala 0;
#X obj 322 361 *~ 1;
#X obj 611 194 vsl 15 128 0 5 0 0 empty empty empty 0 -9 0 10 -262144
-1 -1 2032 1;
#X obj 322 425 *~;
#X obj 392 429 vline~;
#X msg 392 385 0.1 500;
#X msg 467 385 0 500;
#X obj 321 27 loadbang;
#X obj 386 476 hsl 128 15 0 127 0 0 empty empty empty -2 -8 0 10 -262144
-1 -1 2214 1;
#X obj 382 531 mtof~;
#X obj 383 574 +~;
#X obj 432 544 *~;
#X floatatom 483 542 15 0 0 0 - - -;
#X floatatom 431 707 5 0 0 0 - - -;
#X obj 484 509 phasor~;
#X obj 387 639 snapshot~;
#X floatatom 387 667 15 0 0 0 - - -;
#X obj 398 603 receive mt;
#X floatatom 19 49 10 0 0 0 - - -;
#X obj 19 81 expr 44100 / $f1;
#X floatatom 19 115 15 0 0 0 - - -;
#X obj 325 233 phasor~;
#X obj 356 184 hsl 128 15 -0.005 0.009 0 0 empty empty empty -2 -8
0 10 -262144 -1 -1 7113 1;
#X floatatom 353 204 15 0 0 0 - - -;
#X obj 325 271 *~;
#X obj 321 303 tabread4~;
#X obj 500 137 bng 15 250 50 0 empty empty empty 17 7 0 10 -262144
-1 -1;
#X obj 211 436 tgl 15 0 empty empty empty 17 7 0 10 -262144 -1 -1 1
1;
#X obj 214 467 metro 100;
#X obj 214 491 snapshot~;
#X floatatom 214 515 5 0 0 0 - - -;
#X obj 214 557 /;
#X floatatom 214 581 5 0 0 0 - - -;
#X obj 217 683 hsl 128 15 0 1 0 0 empty empty empty -2 -8 0 10 -262144
-1 -1 9306 1;
#X obj 500 81 inlet;
#X obj 552 79 inlet;
#X obj 612 79 inlet;
#X obj 214 716 outlet;
#X obj 664 78 inlet;
#X obj 717 77 inlet;
#X obj 767 76 inlet;
#X obj 328 707 vcf~ 440 1;
#X obj 19 12 r marMala;
#X msg 321 59 set padT9;
#X obj 394 837 send~ padT9;
#X obj 253 535 r marMala;
#X obj 19 154 s reMarMala;
#N canvas 0 50 1210 804 reverb6 0;
#X obj 36 21 inlet~;
#X obj 243 233 +~;
#X obj 285 233 +~;
#X obj 54 359 outlet~;
#X obj 124 359 outlet~;
#X obj 243 297 +~;
#X obj 348 298 +~;
#X obj 285 297 -~;
#X obj 387 297 -~;
#X obj 242 366 +~;
#X obj 286 367 +~;
#X obj 330 368 -~;
#X obj 369 368 -~;
#X obj 330 450 *~ 0;
#X obj 286 449 *~ 0;
#X obj 242 448 *~ 0;
#X obj 369 451 *~ 0;
#X obj 519 333 inlet;
#X obj 519 405 / 200;
#X obj 519 357 min 100;
#X obj 519 380 max 0;
#X text 256 49 "early echo" generators \, which also increase echo
density. Open one to see what they do., f 44;
#X text 260 128 Get the outputs of the recirculating delays. Add the
inputs to two of them., f 38;
#X text 420 287 Do a power-conserving mix of them in pairs. First combine
(1 \, 2) and (3 \, 4)..., f 41;
#X text 403 361 ...then (1 \, 3) and (2 \, 4), f 14;
#X text 428 444 The two mixing stages have a combined gain of 2 \,
so the recirculation gain is limited to 0.5., f 48;
#X text 34 379 Tap outputs from here.;
#X text 581 348 feedback gain on a scale of 0 to 100 to control reverb
time., f 30;
#X text 539 516 Put the signals back into the recirculating delays.
, f 25;
#X obj 36 45 reverb-echo echo-del1-6 5.43216;
#X obj 36 69 reverb-echo echo-del2-6 8.45346;
#X obj 36 93 reverb-echo echo-del3-6 13.4367;
#X obj 36 117 reverb-echo echo-del4-6 21.5463;
#X obj 36 141 reverb-echo echo-del5-6 34.3876;
#X obj 36 165 reverb-echo echo-del6-6 55.5437;
#X obj 261 172 delread~ loop-del1-6 60;
#X obj 303 198 delread~ loop-del2-6 71.9345;
#X obj 387 224 delread~ loop-del3-6 86.7545;
#X obj 405 249 delread~ loop-del4-6 95.945;
#X obj 369 489 delwrite~ loop-del4-6 95.945;
#X obj 330 513 delwrite~ loop-del3-6 86.7545;
#X obj 287 537 delwrite~ loop-del2-6 71.9345;
#X obj 242 559 delwrite~ loop-del1-6 60;
#X connect 0 0 29 0;
#X connect 1 0 3 0;
#X connect 1 0 5 0;
#X connect 1 0 7 0;
#X connect 2 0 4 0;
#X connect 2 0 5 1;
#X connect 2 0 7 1;
#X connect 5 0 9 0;
#X connect 5 0 11 0;
#X connect 6 0 11 1;
#X connect 6 0 9 1;
#X connect 7 0 10 0;
#X connect 7 0 12 0;
#X connect 8 0 10 1;
#X connect 8 0 12 1;
#X connect 9 0 15 0;
#X connect 10 0 14 0;
#X connect 11 0 13 0;
#X connect 12 0 16 0;
#X connect 13 0 40 0;
#X connect 14 0 41 0;
#X connect 15 0 42 0;
#X connect 16 0 39 0;
#X connect 17 0 19 0;
#X connect 18 0 16 1;
#X connect 18 0 15 1;
#X connect 18 0 14 1;
#X connect 18 0 13 1;
#X connect 19 0 20 0;
#X connect 20 0 18 0;
#X connect 29 0 30 0;
#X connect 29 1 30 1;
#X connect 30 0 31 0;
#X connect 30 1 31 1;
#X connect 31 0 32 0;
#X connect 31 1 32 1;
#X connect 32 0 33 0;
#X connect 32 1 33 1;
#X connect 33 0 34 0;
#X connect 33 1 34 1;
#X connect 34 0 1 0;
#X connect 34 1 2 0;
#X connect 35 0 1 1;
#X connect 36 0 2 1;
#X connect 37 0 6 0;
#X connect 37 0 8 0;
#X connect 38 0 6 1;
#X connect 38 0 8 1;
#X restore 390 773 pd reverb6;
#X floatatom 479 739 5 0 100 0 - - -;
#X obj 863 76 inlet;
#X obj 674 472 bng 15 250 50 0 empty empty empty 17 7 0 10 -262144
-1 -1;
#X msg 796 528 6;
#X msg 831 526 11;
#X text 771 448 SET DE DIA;
#X obj 737 660 bng 15 250 50 0 empty empty empty 17 7 0 10 -262144
-1 -1;
#X text 785 641 SET DE NOCHE;
#X msg 702 716 0.0002;
#X msg 756 715 0.8;
#X obj 761 600 r setNoche;
#X msg 791 716 31;
#X msg 826 716 3000;
#X msg 868 716 2;
#X msg 911 714 20;
#X obj 711 383 r setDia;
#X obj 536 819 *;
#X floatatom 536 876 5 0 0 0 - - -;
#X obj 613 761 r modRever;
#X obj 624 802 bng 15 250 50 0 empty empty empty 17 7 0 10 -262144
-1 -1;
#X floatatom 659 796 5 0 0 0 - - -;
#X obj 682 825 *;
#X floatatom 682 886 5 0 0 0 - - -;
#X floatatom 702 796 5 0 0 0 - - -;
#X obj 770 808 bng 15 250 50 0 empty empty empty 17 7 0 10 -262144
-1 -1;
#X obj 759 767 r modDist;
#X obj 794 834 *;
#X floatatom 794 864 5 0 0 0 - - -;
#X floatatom 814 805 5 0 0 0 - - -;
#X obj 693 859 * 0.47;
#X floatatom 351 447 5 0 0 0 - - -;
#X msg 728 528 38;
#X msg 763 528 300;
#X floatatom 417 288 10 0 1 0 - - -;
#X obj 537 191 r volGenHum;
#X floatatom 538 224 5 0 0 0 - - -;
#X obj 527 258 *;
#X obj 401 318 r marOn;
#X obj 468 318 r marOff;
#X obj 468 354 bng 15 250 50 0 empty empty empty 17 7 0 10 -262144
-1 -1;
#X obj 402 352 bng 15 250 50 0 empty empty empty 17 7 0 10 -262144
-1 -1;
#X obj 536 846 * 0.8;
#X obj 917 769 r revMarOff;
#X obj 1006 771 r revMarOn;
#X obj 901 793 tgl 15 0 empty empty empty 17 7 0 10 -262144 -1 -1 0
1;
#X floatatom 856 852 5 0 0 0 - - -;
#X obj 856 825 expr if($f1 == 1 \, $f2 \, 0);
#X obj 1157 806 tgl 15 0 empty empty empty 17 7 0 10 -262144 -1 -1
0 1;
#X floatatom 1109 869 5 0 0 0 - - -;
#X obj 1112 838 expr if($f1 == 1 \, $f2 \, 1);
#X obj 1127 769 r distMarOff;
#X obj 1202 726 r distMarOn;
#X msg 678 527 0.8;
#X connect 0 0 2 0;
#X connect 1 0 83 0;
#X connect 2 0 40 0;
#X connect 3 0 2 1;
#X connect 4 0 3 0;
#X connect 5 0 3 0;
#X connect 6 0 42 0;
#X connect 6 0 4 0;
#X connect 6 0 26 0;
#X connect 6 0 49 0;
#X connect 7 0 8 0;
#X connect 8 0 9 0;
#X connect 8 0 14 0;
#X connect 8 0 13 0;
#X connect 9 0 40 1;
#X connect 10 0 9 1;
#X connect 11 0 73 0;
#X connect 12 0 96 1;
#X connect 13 0 10 0;
#X connect 14 0 15 0;
#X connect 16 0 14 0;
#X connect 17 0 18 0;
#X connect 18 0 19 0;
#X connect 19 0 20 0;
#X connect 19 0 21 0;
#X connect 19 0 45 0;
#X connect 20 0 23 0;
#X connect 21 0 22 0;
#X connect 22 0 20 0;
#X connect 23 0 24 0;
#X connect 23 0 28 0;
#X connect 24 0 0 0;
#X connect 25 0 17 0;
#X connect 25 0 49 0;
#X connect 26 0 27 0;
#X connect 27 0 28 0;
#X connect 28 0 29 0;
#X connect 29 0 30 0;
#X connect 30 0 31 0;
#X connect 31 0 32 0;
#X connect 32 0 36 0;
#X connect 33 0 25 0;
#X connect 34 0 21 0;
#X connect 35 0 1 0;
#X connect 37 0 77 0;
#X connect 38 0 12 0;
#X connect 39 0 11 0;
#X connect 40 0 43 0;
#X connect 40 0 46 0;
#X connect 41 0 17 0;
#X connect 41 0 23 1;
#X connect 42 0 24 0;
#X connect 44 0 30 1;
#X connect 46 0 43 0;
#X connect 47 0 63 0;
#X connect 48 0 47 0;
#X connect 49 0 79 0;
#X connect 49 0 78 0;
#X connect 49 0 50 0;
#X connect 49 0 51 0;
#X connect 49 0 17 0;
#X connect 49 0 99 0;
#X connect 49 0 96 0;
#X connect 50 0 12 0;
#X connect 51 0 47 0;
#X connect 53 0 56 0;
#X connect 53 0 59 0;
#X connect 53 0 58 0;
#X connect 53 0 60 0;
#X connect 53 0 61 0;
#X connect 53 0 55 0;
#X connect 53 0 96 0;
#X connect 55 0 21 0;
#X connect 56 0 1 0;
#X connect 57 0 53 0;
#X connect 58 0 67 0;
#X connect 59 0 11 0;
#X connect 60 0 12 0;
#X connect 61 0 47 0;
#X connect 62 0 49 0;
#X connect 63 0 88 0;
#X connect 64 0 46 1;
#X connect 65 0 66 0;
#X connect 65 0 93 1;
#X connect 66 0 47 0;
#X connect 66 0 93 0;
#X connect 67 0 68 0;
#X connect 68 0 76 0;
#X connect 69 0 7 0;
#X connect 70 0 68 1;
#X connect 71 0 67 0;
#X connect 71 0 11 0;
#X connect 72 0 70 0;
#X connect 72 0 71 0;
#X connect 72 0 75 0;
#X connect 73 0 74 0;
#X connect 74 0 10 1;
#X connect 75 0 73 1;
#X connect 76 0 69 0;
#X connect 77 0 7 0;
#X connect 78 0 67 0;
#X connect 79 0 11 0;
#X connect 80 0 0 1;
#X connect 81 0 82 0;
#X connect 82 0 83 1;
#X connect 83 0 80 0;
#X connect 84 0 87 0;
#X connect 85 0 86 0;
#X connect 86 0 5 0;
#X connect 87 0 4 0;
#X connect 88 0 64 0;
#X connect 89 0 91 0;
#X connect 90 0 91 0;
#X connect 91 0 93 0;
#X connect 92 0 63 1;
#X connect 93 0 92 0;
#X connect 94 0 96 0;
#X connect 95 0 40 2;
#X connect 96 0 95 0;
#X connect 97 0 94 0;
#X connect 98 0 94 0;
#X connect 99 0 1 0;
#X restore 1169 677 pd marMala;
#X obj 1286 811 hsl 128 15 0 100 0 0 empty empty empty -2 -8 0 10 -262144
-1 -1 0 1;
#X text 1294 785 Reverb 0 - 100;
#N canvas -8 -8 1366 685 tables 0;
#X obj 15 16 table padT1-1;
#X obj 15 42 table padT1-2;
#X obj 15 67 table padT1-3;
#X obj 129 15 table padT2-1;
#X obj 238 19 table padT3-1;
#X obj 16 92 table padT1-4;
#X obj 16 118 table padT1-5;
#X obj 16 144 table padT1-6;
#X obj 16 169 table padT1-7;
#X obj 17 195 table padT1-8;
#X obj 16 220 table padT1-9;
#X obj 16 246 table padT1-10;
#X obj 16 271 table padT1-11;
#X obj 17 296 table padT1-12;
#X obj 17 324 table padT1-13;
#X obj 17 350 table padT1-14;
#X obj 17 375 table padT1-15;
#X obj 18 400 table padT1-16;
#X obj 130 44 table padT2-2;
#X obj 128 74 table padT2-3;
#X obj 129 103 table padT2-4;
#X obj 127 133 table padT2-5;
#X obj 128 162 table padT2-6;
#X obj 126 192 table padT2-7;
#X obj 127 221 table padT2-8;
#X obj 128 251 table padT2-9;
#X obj 129 280 table padT2-10;
#X obj 127 310 table padT2-11;
#X obj 128 339 table padT2-12;
#X obj 127 362 table padT2-13;
#X obj 128 391 table padT2-14;
#X obj 126 421 table padT2-15;
#X obj 128 456 table padT2-16;
#X obj 129 485 table padT2-17;
#X obj 128 508 table padT2-18;
#X obj 129 537 table padT2-19;
#X obj 127 567 table padT2-20;
#X restore 1760 31 pd tables;
#X text 1764 2 Tables de los sonidos reactivos;
#N canvas -8 -8 1366 685 arpeggiator 0;
#X obj 161 114 bng 15 250 50 0 empty empty empty 17 7 0 10 -262144
-1 -1;
#X obj 240 614 *~ 1;
#X obj 450 286 vsl 15 128 0 5 0 0 empty empty empty 0 -9 0 10 -262144
-1 -1 2032 1;
#X obj 240 657 *~;
#X obj 315 637 vline~;
#X msg 315 593 0.1 500;
#X msg 382 592 0 500;
#X obj 360 740 mtof;
#X obj 365 683 hsl 128 15 0 127 0 0 empty empty empty -2 -8 0 10 -262144
-1 -1 2700 1;
#X floatatom 361 711 5 0 0 0 - - -;
#X obj 258 728 hip~ 5;
#X obj 239 543 tabplay~;
#X msg 65 240 set padT1-1;
#X msg 66 274 set padT1-2;
#X floatatom 144 681 5 0 0 0 - - -;
#X obj 142 727 delay 500;
#X obj 141 704 bng 15 250 50 0 empty empty empty 17 7 0 10 -262144
-1 -1;
#X obj 144 581 bng 15 250 50 0 empty empty empty 17 7 0 10 -262144
-1 -1;
#X obj 142 762 bng 15 250 50 0 empty empty empty 17 7 0 10 -262144
-1 -1;
#X floatatom 266 163 5 0 0 0 - - -;
#X obj 265 98 bng 15 250 50 0 empty empty empty 17 7 0 10 -262144 -1
-1;
#X obj 282 767 send~ padT1;
#X obj 238 47 loadbang;
#X msg 65 342 set padT1-4;
#X msg 65 374 set padT1-5;
#X msg 64 405 set padT1-6;
#X msg 65 439 set padT1-7;
#X msg 64 474 set padT1-8;
#X msg 64 506 set padT1-9;
#X msg 64 306 set padT1-3;
#X msg 277 261 set padT1-10;
#X msg 278 295 set padT1-11;
#X obj 144 649 + 500;
#X obj 144 616 random 4000;
#X floatatom 410 650 5 0 0 0 - - -;
#X obj 457 50 inlet;
#X obj 523 49 inlet;
#X floatatom 198 583 5 0 0 0 - - -;
#X obj 583 48 inlet;
#X obj 652 390 bng 15 250 50 0 empty empty empty 17 7 0 10 -262144
-1 -1;
#X msg 706 446 4000;
#X obj 672 343 r setDia;
#X obj 634 568 bng 15 250 50 0 empty empty empty 17 7 0 10 -262144
-1 -1;
#X obj 654 521 r setNoche;
#X text 678 289 SET DE DIA;
#X text 751 492 SET DE NOCHE;
#X msg 713 624 8000;
#X obj 125 206 select 0 1 2 3 4 5 6 7 8 9 10;
#X obj 266 129 random 11;
#X msg 652 624 0.03;
#X floatatom 303 466 10 0 1 0 - - -;
#X obj 316 364 r volGenHum;
#X floatatom 317 397 5 0 0 0 - - -;
#X obj 306 431 *;
#X obj 631 692 r modReverVoc;
#X obj 611 766 *;
#X floatatom 611 796 5 0 0 0 - - -;
#X floatatom 631 724 5 0 0 0 - - -;
#X obj 412 619 random 15;
#X obj 758 692 r modReverCo2;
#X floatatom 758 722 5 0 0 0 - - -;
#X obj 711 759 expr ($f1 + $f2)/2;
#X floatatom 713 793 5 0 0 0 - - -;
#X obj 390 501 r arpOn;
#X obj 450 503 r arpOff;
#X obj 388 543 bng 15 250 50 0 empty empty empty 17 7 0 10 -262144
-1 -1;
#X obj 449 542 bng 15 250 50 0 empty empty empty 17 7 0 10 -262144
-1 -1;
#X msg 672 429 0.8;
#X connect 0 0 11 0;
#X connect 0 0 48 0;
#X connect 1 0 3 0;
#X connect 2 0 53 0;
#X connect 3 0 10 0;
#X connect 4 0 3 1;
#X connect 5 0 4 0;
#X connect 6 0 4 0;
#X connect 7 0 10 1;
#X connect 8 0 9 0;
#X connect 9 0 7 0;
#X connect 10 0 21 0;
#X connect 11 0 1 0;
#X connect 11 1 17 0;
#X connect 12 0 11 0;
#X connect 13 0 11 0;
#X connect 14 0 15 1;
#X connect 14 0 16 0;
#X connect 15 0 18 0;
#X connect 16 0 15 0;
#X connect 17 0 33 0;
#X connect 18 0 0 0;
#X connect 18 0 58 0;
#X connect 19 0 47 0;
#X connect 20 0 0 0;
#X connect 20 0 48 0;
#X connect 22 0 20 0;
#X connect 22 0 5 0;
#X connect 22 0 39 0;
#X connect 23 0 11 0;
#X connect 24 0 11 0;
#X connect 25 0 11 0;
#X connect 26 0 11 0;
#X connect 27 0 11 0;
#X connect 28 0 11 0;
#X connect 29 0 11 0;
#X connect 30 0 11 0;
#X connect 31 0 11 0;
#X connect 32 0 14 0;
#X connect 33 0 32 0;
#X connect 34 0 55 0;
#X connect 35 0 20 0;
#X connect 36 0 37 0;
#X connect 37 0 33 1;
#X connect 38 0 2 0;
#X connect 39 0 67 0;
#X connect 39 0 40 0;
#X connect 40 0 37 0;
#X connect 41 0 39 0;
#X connect 42 0 49 0;
#X connect 42 0 46 0;
#X connect 43 0 42 0;
#X connect 46 0 37 0;
#X connect 47 0 12 0;
#X connect 47 1 13 0;
#X connect 47 2 29 0;
#X connect 47 3 23 0;
#X connect 47 4 24 0;
#X connect 47 5 25 0;
#X connect 47 6 26 0;
#X connect 47 7 27 0;
#X connect 47 8 28 0;
#X connect 47 9 30 0;
#X connect 47 10 31 0;
#X connect 48 0 19 0;
#X connect 49 0 2 0;
#X connect 50 0 1 1;
#X connect 51 0 52 0;
#X connect 52 0 53 1;
#X connect 53 0 50 0;
#X connect 54 0 57 0;
#X connect 55 0 56 0;
#X connect 56 0 8 0;
#X connect 57 0 61 0;
#X connect 58 0 34 0;
#X connect 59 0 60 0;
#X connect 60 0 61 1;
#X connect 61 0 62 0;
#X connect 62 0 55 1;
#X connect 63 0 65 0;
#X connect 64 0 66 0;
#X connect 65 0 5 0;
#X connect 66 0 6 0;
#X connect 67 0 2 0;
#X restore 243 1037 pd arpeggiator;
#X obj 242 1012 bng 15 250 50 0 empty empty empty 17 7 0 10 -262144
-1 -1;
#X text 229 961 Trigger;
#X obj 341 1010 hsl 128 15 0 4000 0 0 empty empty empty -2 -8 0 10
-262144 -1 -1 0 1;
#X obj 367 1059 hsl 128 15 0 5 0 0 empty empty empty -2 -8 0 10 -262144
-1 -1 0 1;
#X text 365 1038 Volumen 0 - 5;
#N canvas -8 -8 1366 725 freePercus 0;
#X obj 125 738 *~ 1;
#X obj 367 621 vsl 15 128 0 5 0 0 empty empty empty 0 -9 0 10 -262144
-1 -1 1016 1;
#X obj 127 775 *~;
#X obj 197 779 vline~;
#X msg 197 735 0.1 500;
#X msg 268 736 0 500;
#X obj 128 864 hip~ 5;
#X floatatom 167 140 5 0 0 0 - - -;
#X obj 137 79 bng 15 250 50 0 empty empty empty 17 7 0 10 -262144 -1
-1;
#X obj 25 814 + 100;
#X floatatom 25 846 5 0 0 0 - - -;
#X obj 23 892 delay 500;
#X obj 22 869 bng 15 250 50 0 empty empty empty 17 7 0 10 -262144 -1
-1;
#X obj 25 746 bng 15 250 50 0 empty empty empty 17 7 0 10 -262144 -1
-1;
#X obj 23 927 bng 15 250 50 0 empty empty empty 17 7 0 10 -262144 -1
-1;
#X obj 25 781 random 2000;
#X obj 126 664 tabplay~;
#X obj 141 924 send~ padT2;
#X obj 130 42 loadbang;
#X obj 46 84 bng 15 250 50 0 empty empty empty 17 7 0 10 -262144 -1
-1;
#X obj 247 899 mtof;
#X obj 252 842 hsl 128 15 0 127 0 0 empty empty empty -2 -8 0 10 -262144
-1 -1 6331 1;
#X floatatom 248 870 5 0 0 0 - - -;
#X floatatom 297 809 5 0 0 0 - - -;
#X msg 20 222 set padT2-1;
#X msg 21 256 set padT2-2;
#X msg 19 288 set padT2-3;
#X msg 20 324 set padT2-4;
#X msg 20 356 set padT2-5;
#X msg 19 387 set padT2-6;
#X msg 20 421 set padT2-7;
#X msg 19 456 set padT2-8;
#X msg 19 488 set padT2-9;
#X msg 221 217 set padT2-10;
#X msg 222 251 set padT2-11;
#X msg 220 283 set padT2-12;
#X msg 221 319 set padT2-13;
#X msg 221 351 set padT2-14;
#X msg 220 382 set padT2-15;
#X obj 444 72 inlet;
#X obj 525 74 inlet;
#X obj 594 81 inlet;
#X obj 560 515 bng 15 250 50 0 empty empty empty 17 7 0 10 -262144
-1 -1;
#X floatatom 70 739 5 0 0 0 - - -;
#X obj 569 468 r setDia;
#X obj 521 720 bng 15 250 50 0 empty empty empty 17 7 0 10 -262144
-1 -1;
#X obj 541 673 r setNoche;
#X text 575 414 SET DE DIA;
#X text 638 644 SET DE NOCHE;
#X obj 130 171 select 0 1 2 3 4 5 6 7 8 9 10 11 12 13 14 15 16 17 18
19;
#X msg 219 413 set padT2-16;
#X msg 231 445 set padT2-17;
#X msg 229 481 set padT2-18;
#X msg 229 513 set padT2-19;
#X obj 169 99 random 20;
#X msg 228 544 set padT2-20;
#X msg 539 776 0.07;
#X msg 614 571 4000;
#X msg 600 776 8000;
#X floatatom 337 564 10 0 1 0 - - -;
#X obj 350 462 r volGenHum;
#X floatatom 351 495 5 0 0 0 - - -;
#X obj 340 529 *;
#X obj 592 797 r modReverVoc;
#X obj 572 871 *;
#X floatatom 572 916 5 0 0 0 - - -;
#X floatatom 592 829 5 0 0 0 - - -;
#X obj 299 778 random 15;
#X obj 532 894 + 10;
#X obj 220 648 r freeOn;
#X obj 290 645 r freeOff;
#X obj 223 689 bng 15 250 50 0 empty empty empty 17 7 0 10 -262144
-1 -1;
#X obj 281 691 bng 15 250 50 0 empty empty empty 17 7 0 10 -262144
-1 -1;
#X msg 578 571 0.4;
#X connect 0 0 2 0;
#X connect 1 0 62 0;
#X connect 2 0 6 0;
#X connect 3 0 2 1;
#X connect 4 0 3 0;
#X connect 5 0 3 0;
#X connect 6 0 17 0;
#X connect 7 0 49 0;
#X connect 8 0 19 0;
#X connect 8 0 54 0;
#X connect 9 0 10 0;
#X connect 10 0 11 1;
#X connect 10 0 12 0;
#X connect 11 0 14 0;
#X connect 12 0 11 0;
#X connect 13 0 15 0;
#X connect 14 0 19 0;
#X connect 14 0 67 0;
#X connect 15 0 9 0;
#X connect 16 0 0 0;
#X connect 16 1 13 0;
#X connect 18 0 8 0;
#X connect 18 0 4 0;
#X connect 18 0 42 0;
#X connect 19 0 16 0;
#X connect 19 0 54 0;
#X connect 19 0 67 0;
#X connect 20 0 6 1;
#X connect 21 0 22 0;
#X connect 22 0 20 0;
#X connect 23 0 64 0;
#X connect 24 0 16 0;
#X connect 25 0 16 0;
#X connect 26 0 16 0;
#X connect 27 0 16 0;
#X connect 28 0 16 0;
#X connect 29 0 16 0;
#X connect 30 0 16 0;
#X connect 31 0 16 0;
#X connect 32 0 16 0;
#X connect 33 0 16 0;
#X connect 34 0 16 0;
#X connect 35 0 16 0;
#X connect 36 0 16 0;
#X connect 37 0 16 0;
#X connect 38 0 16 0;
#X connect 39 0 8 0;
#X connect 40 0 43 0;
#X connect 41 0 1 0;
#X connect 42 0 57 0;
#X connect 42 0 73 0;
#X connect 43 0 15 1;
#X connect 44 0 42 0;
#X connect 45 0 56 0;
#X connect 45 0 58 0;
#X connect 46 0 45 0;
#X connect 49 0 24 0;
#X connect 49 1 25 0;
#X connect 49 2 26 0;
#X connect 49 3 27 0;
#X connect 49 4 28 0;
#X connect 49 5 29 0;
#X connect 49 6 30 0;
#X connect 49 7 31 0;
#X connect 49 8 32 0;
#X connect 49 9 33 0;
#X connect 49 10 34 0;
#X connect 49 11 35 0;
#X connect 49 12 36 0;
#X connect 49 13 37 0;
#X connect 49 14 38 0;
#X connect 49 15 50 0;
#X connect 49 16 51 0;
#X connect 49 17 52 0;
#X connect 49 18 53 0;
#X connect 49 19 55 0;
#X connect 50 0 16 0;
#X connect 51 0 16 0;
#X connect 52 0 16 0;
#X connect 53 0 16 0;
#X connect 54 0 7 0;
#X connect 55 0 16 0;
#X connect 56 0 1 0;
#X connect 57 0 43 0;
#X connect 58 0 43 0;
#X connect 59 0 0 1;
#X connect 60 0 61 0;
#X connect 61 0 62 1;
#X connect 62 0 59 0;
#X connect 63 0 66 0;
#X connect 64 0 68 0;
#X connect 65 0 21 0;
#X connect 66 0 64 1;
#X connect 67 0 23 0;
#X connect 68 0 65 0;
#X connect 69 0 71 0;
#X connect 70 0 72 0;
#X connect 71 0 4 0;
#X connect 72 0 5 0;
#X connect 73 0 1 0;
#X restore 769 1022 pd freePercus;
#X obj 769 970 bng 15 250 50 0 empty empty empty 17 7 0 10 -262144
-1 -1;
#X text 765 916 Trigger;
#X obj 867 979 hsl 128 15 0 2000 0 0 empty empty empty -2 -8 0 10 -262144
-1 -1 0 1;
#X obj 893 1028 hsl 128 15 0 5 0 0 empty empty empty -2 -8 0 10 -262144
-1 -1 0 1;
#X text 891 1007 Volumen 0 - 5;
#X text 864 950 Delay trigger 100 - 2000;
#N canvas -8 -8 1366 685 hojaPapel 0;
#X obj 153 474 *~ 1;
#X obj 424 204 vsl 15 128 0 5 0 0 empty empty empty 0 -9 0 10 -262144
-1 -1 2286 1;
#X obj 171 523 *~;
#X obj 241 527 vline~;
#X msg 241 483 0.1 500;
#X msg 311 489 0 500;
#X obj 298 646 mtof;
#X obj 272 597 hsl 128 15 0 127 0 0 empty empty empty -2 -8 0 10 -262144
-1 -1 4790 1;
#X floatatom 298 620 5 0 0 0 - - -;
#X obj 89 95 bng 15 250 50 0 empty empty empty 17 7 0 10 -262144 -1
-1;
#X obj 127 78 bng 15 250 50 0 empty empty empty 17 7 0 10 -262144 -1
-1;
#X obj 79 587 + 100;
#X floatatom 79 619 5 0 0 0 - - -;
#X obj 77 665 delay 500;
#X obj 76 642 bng 15 250 50 0 empty empty empty 17 7 0 10 -262144 -1
-1;
#X obj 79 519 bng 15 250 50 0 empty empty empty 17 7 0 10 -262144 -1
-1;
#X obj 77 700 bng 15 250 50 0 empty empty empty 17 7 0 10 -262144 -1
-1;
#X obj 79 554 random 2000;
#X obj 152 389 tabplay~;
#X msg 86 156 set padT3-1;
#X obj 229 681 send~ padT3;
#X obj 172 647 hip~ 220 1;
#X obj 127 43 loadbang;
#X obj 390 78 inlet;
#X obj 459 79 inlet;
#X obj 525 76 inlet;
#X floatatom 363 538 5 0 0 0 - - -;
#X obj 510 336 bng 15 250 50 0 empty empty empty 17 7 0 10 -262144
-1 -1;
#X floatatom 126 518 5 0 0 0 - - -;
#X obj 519 293 r setDia;
#X obj 481 518 bng 15 250 50 0 empty empty empty 17 7 0 10 -262144
-1 -1;
#X obj 501 471 r setNoche;
#X text 525 239 SET DE DIA;
#X text 598 442 SET DE NOCHE;
#X msg 564 392 4000;
#X msg 560 574 8000;
#X msg 499 574 0.18;
#X floatatom 248 307 10 0 1 0 - - -;
#X obj 264 199 r volGenHum;
#X floatatom 265 232 5 0 0 0 - - -;
#X obj 254 266 *;
#X obj 478 703 *;
#X floatatom 478 748 5 0 0 0 - - -;
#X floatatom 498 661 5 0 0 0 - - -;
#X obj 499 623 r modReverCo2;
#X obj 438 726 + 10;
#X obj 365 507 random 15;
#X obj 268 374 r hojaOn;
#X obj 333 374 r hojaOff;
#X obj 268 417 bng 15 250 50 0 empty empty empty 17 7 0 10 -262144
-1 -1;
#X obj 334 416 bng 15 250 50 0 empty empty empty 17 7 0 10 -262144
-1 -1;
#X msg 528 392 0.9;
#X connect 0 0 2 0;
#X connect 1 0 40 0;
#X connect 2 0 21 0;
#X connect 3 0 2 1;
#X connect 4 0 3 0;
#X connect 5 0 3 0;
#X connect 6 0 21 1;
#X connect 7 0 8 0;
#X connect 8 0 6 0;
#X connect 9 0 18 0;
#X connect 9 0 19 0;
#X connect 9 0 46 0;
#X connect 10 0 9 0;
#X connect 11 0 12 0;
#X connect 12 0 13 1;
#X connect 12 0 14 0;
#X connect 13 0 16 0;
#X connect 14 0 13 0;
#X connect 15 0 17 0;
#X connect 16 0 9 0;
#X connect 16 0 46 0;
#X connect 17 0 11 0;
#X connect 18 0 0 0;
#X connect 18 1 15 0;
#X connect 19 0 18 0;
#X connect 21 0 20 0;
#X connect 22 0 10 0;
#X connect 22 0 4 0;
#X connect 22 0 27 0;
#X connect 23 0 10 0;
#X connect 24 0 17 1;
#X connect 25 0 1 0;
#X connect 26 0 41 0;
#X connect 27 0 51 0;
#X connect 27 0 34 0;
#X connect 28 0 17 1;
#X connect 29 0 27 0;
#X connect 30 0 36 0;
#X connect 30 0 35 0;
#X connect 31 0 30 0;
#X connect 34 0 28 0;
#X connect 35 0 28 0;
#X connect 36 0 1 0;
#X connect 37 0 0 1;
#X connect 38 0 39 0;
#X connect 39 0 40 1;
#X connect 40 0 37 0;
#X connect 41 0 45 0;
#X connect 42 0 7 0;
#X connect 43 0 41 1;
#X connect 44 0 43 0;
#X connect 45 0 42 0;
#X connect 46 0 26 0;
#X connect 47 0 49 0;
#X connect 48 0 50 0;
#X connect 49 0 4 0;
#X connect 50 0 5 0;
#X connect 51 0 1 0;
#X restore 1307 1001 pd hojaPapel;
#X obj 1307 948 bng 15 250 50 0 empty empty empty 17 7 0 10 -262144
-1 -1;
#X text 1296 890 Trigger;
#X obj 1405 957 hsl 128 15 0 2000 0 0 empty empty empty -2 -8 0 10
-262144 -1 -1 0 1;
#X obj 1431 1006 hsl 128 15 0 5 0 0 empty empty empty -2 -8 0 10 -262144
-1 -1 0 1;
#X text 1429 985 Volumen 0 - 5;
#X text 1402 928 Delay trigger 100 - 2000;
#X text 349 73 -4 a -5;
#X text 130 1 20 a 50;
#X text 434 69 200 a 210;
#X text 592 89 10 a 20;
#X text 548 70 40 a 90;
#X text 567 -113 Spectrometer;
#X text 828 -125 Smart City;
#X text 930 28 20 a 70;
#X text 986 66 0 a 100;
#X text 1041 33 -2;
#X text 1101 34 -20;
#X text 338 981 Delay trigger 500 - 6000;
#N canvas -8 -8 1366 725 cerebro 0;
#X obj 97 365 s setDia;
#X obj 13 365 s setNoche;
#X obj 97 321 bng 15 250 50 0 empty empty empty 17 7 0 10 -262144 -1
-1;
#X obj 13 313 bng 15 250 50 0 empty empty empty 17 7 0 10 -262144 -1
-1;
#X floatatom 39 156 5 0 0 0 - - -;
#X obj 39 129 r sLight;
#X floatatom 38 221 5 0 0 0 - - -;
#X obj 37 247 select 0 1;
#X text 46 1 Cambio del dia a la noche;
#X obj 63 43 inlet;
#X obj 13 44 inlet;
#X text 228 24 20 a 70;
#X obj 223 43 r sNoise;
#X text 35 107 0 a 100;
#X floatatom 223 69 5 0 0 0 - - -;
#X floatatom 223 158 5 0 0 0 - - -;
#X obj 222 184 select 0 1;
#X obj 222 218 bng 15 250 50 0 empty empty empty 17 7 0 10 -262144
-1 -1;
#X obj 220 323 select 0 1 2;
#X obj 222 244 random 3;
#X floatatom 220 280 5 0 0 0 - - -;
#X obj 220 371 bng 15 250 50 0 empty empty empty 17 7 0 10 -262144
-1 -1;
#X obj 247 371 bng 15 250 50 0 empty empty empty 17 7 0 10 -262144
-1 -1;
#X obj 274 372 bng 15 250 50 0 empty empty empty 17 7 0 10 -262144
-1 -1;
#X obj 155 42 inlet;
#X obj 203 422 s arpe;
#X obj 264 421 s percu;
#X obj 330 420 s hoja;
#X floatatom 623 206 5 0 0 0 - - -;
#X obj 762 96 r greenLevels;
#X floatatom 762 128 5 0 0 0 - - -;
#X floatatom 623 126 5 0 0 0 - - -;
#X obj 623 94 r camPix;
#X text 767 69 10 a 50;
#X floatatom 763 209 5 0 0 0 - - -;
#X msg 712 121 log;
#X obj 616 255 s modRever;
#X obj 691 93 loadbang;
#X obj 621 19 inlet;
#X obj 762 255 s modDist;
#X obj 763 22 inlet;
#X obj 763 173 m_scale 100 0 0 1.5;
#X obj 622 174 m_scale 0 200 0 5;
#X floatatom 424 132 5 0 0 0 - - -;
#X text 297 3 Sensor de ruido;
#X obj 548 97 loadbang;
#X floatatom 424 210 5 0 0 0 - - -;
#X obj 424 255 s volGenHum;
#X obj 425 30 inlet;
#X msg 569 125 db;
#X obj 424 173 m_scale 0 100 0 1.3;
#X obj 424 98 r greenLevels;
#X obj 21 503 r sVoc;
#X obj 83 503 r sCo2;
#X floatatom 21 536 5 0 0 0 - - -;
#X floatatom 83 539 5 0 0 0 - - -;
#X floatatom 20 641 5 0 0 0 - - -;
#X floatatom 158 643 5 0 0 0 - - -;
#X msg 181 536 log;
#X obj 160 508 loadbang;
#X obj 20 679 s modReverVoc;
#X obj 158 682 s modReverCo2;
#X obj 19 606 m_scale 0 100 1 8;
#X obj 157 606 m_scale 0 100 1 8;
#X obj 465 384 tgl 15 0 empty empty empty 17 7 0 10 -262144 -1 -1 1
1;
#X floatatom 465 351 5 0 0 0 - - -;
#X obj 465 317 r bGreenVal;
#X obj 465 455 bng 15 250 50 0 empty empty empty 17 7 0 10 -262144
-1 -1;
#X obj 465 409 select 0 1;
#X obj 498 455 bng 15 250 50 0 empty empty empty 17 7 0 10 -262144
-1 -1;
#X obj 463 498 s guitOff;
#X obj 544 498 s guitOn;
#X obj 560 538 r bCam;
#X obj 672 537 r bPh;
#X obj 890 535 r bSoilMoisture;
#X obj 1100 320 r bAirTemp;
#X obj 1209 321 r bAirHum;
#X obj 1054 537 r bSNoise;
#X obj 618 324 r bSLight;
#X obj 857 319 r bSVoc;
#X obj 749 321 r bSCo2;
#X obj 461 540 r bSTemp;
#X obj 560 604 tgl 15 0 empty empty empty 17 7 0 10 -262144 -1 -1 1
1;
#X floatatom 560 571 5 0 0 0 - - -;
#X obj 560 675 bng 15 250 50 0 empty empty empty 17 7 0 10 -262144
-1 -1;
#X obj 560 629 select 0 1;
#X obj 593 675 bng 15 250 50 0 empty empty empty 17 7 0 10 -262144
-1 -1;
#X obj 619 392 tgl 15 0 empty empty empty 17 7 0 10 -262144 -1 -1 1
1;
#X floatatom 619 359 5 0 0 0 - - -;
#X obj 619 463 bng 15 250 50 0 empty empty empty 17 7 0 10 -262144
-1 -1;
#X obj 619 417 select 0 1;
#X obj 652 463 bng 15 250 50 0 empty empty empty 17 7 0 10 -262144
-1 -1;
#X obj 620 496 s marOff;
#X obj 701 496 s marOn;
#X obj 560 703 s guiEspOff;
#X obj 654 703 s guiEspOn;
#X floatatom 857 353 5 0 0 0 - - -;
#X floatatom 749 354 5 0 0 0 - - -;
#X obj 857 388 tgl 15 0 empty empty empty 17 7 0 10 -262144 -1 -1 1
1;
#X obj 750 388 tgl 15 0 empty empty empty 17 7 0 10 -262144 -1 -1 1
1;
#X obj 857 461 bng 15 250 50 0 empty empty empty 17 7 0 10 -262144
-1 -1;
#X obj 857 415 select 0 1;
#X obj 890 461 bng 15 250 50 0 empty empty empty 17 7 0 10 -262144
-1 -1;
#X obj 748 461 bng 15 250 50 0 empty empty empty 17 7 0 10 -262144
-1 -1;
#X obj 748 415 select 0 1;
#X obj 781 461 bng 15 250 50 0 empty empty empty 17 7 0 10 -262144
-1 -1;
#X obj 460 675 bng 15 250 50 0 empty empty empty 17 7 0 10 -262144
-1 -1;
#X obj 460 629 select 0 1;
#X obj 493 675 bng 15 250 50 0 empty empty empty 17 7 0 10 -262144
-1 -1;
#X floatatom 462 567 5 0 0 0 - - -;
#X obj 463 601 tgl 15 0 empty empty empty 17 7 0 10 -262144 -1 -1 1
1;
#X obj 895 671 bng 15 250 50 0 empty empty empty 17 7 0 10 -262144
-1 -1;
#X obj 895 625 select 0 1;
#X obj 928 671 bng 15 250 50 0 empty empty empty 17 7 0 10 -262144
-1 -1;
#X floatatom 897 563 5 0 0 0 - - -;
#X obj 898 597 tgl 15 0 empty empty empty 17 7 0 10 -262144 -1 -1 1
1;
#X floatatom 1210 361 5 0 0 0 - - -;
#X floatatom 1054 573 5 0 0 0 - - -;
#X obj 1210 396 tgl 15 0 empty empty empty 17 7 0 10 -262144 -1 -1
1 1;
#X obj 1055 607 tgl 15 0 empty empty empty 17 7 0 10 -262144 -1 -1
0 1;
#X obj 1210 469 bng 15 250 50 0 empty empty empty 17 7 0 10 -262144
-1 -1;
#X obj 1210 423 select 0 1;
#X obj 1243 469 bng 15 250 50 0 empty empty empty 17 7 0 10 -262144
-1 -1;
#X obj 1053 680 bng 15 250 50 0 empty empty empty 17 7 0 10 -262144
-1 -1;
#X obj 1053 634 select 0 1;
#X obj 1086 680 bng 15 250 50 0 empty empty empty 17 7 0 10 -262144
-1 -1;
#X obj 1098 460 bng 15 250 50 0 empty empty empty 17 7 0 10 -262144
-1 -1;
#X obj 1098 414 select 0 1;
#X obj 1131 460 bng 15 250 50 0 empty empty empty 17 7 0 10 -262144
-1 -1;
#X floatatom 1100 352 5 0 0 0 - - -;
#X obj 1101 386 tgl 15 0 empty empty empty 17 7 0 10 -262144 -1 -1
1 1;
#X obj 670 673 bng 15 250 50 0 empty empty empty 17 7 0 10 -262144
-1 -1;
#X obj 670 627 select 0 1;
#X obj 703 673 bng 15 250 50 0 empty empty empty 17 7 0 10 -262144
-1 -1;
#X floatatom 672 565 5 0 0 0 - - -;
#X obj 673 599 tgl 15 0 empty empty empty 17 7 0 10 -262144 -1 -1 1
1;
#X floatatom 953 352 5 0 0 0 - - -;
#X obj 953 387 tgl 15 0 empty empty empty 17 7 0 10 -262144 -1 -1 1
1;
#X obj 953 460 bng 15 250 50 0 empty empty empty 17 7 0 10 -262144
-1 -1;
#X obj 953 414 select 0 1;
#X obj 986 460 bng 15 250 50 0 empty empty empty 17 7 0 10 -262144
-1 -1;
#X obj 952 320 r bsHumAir;
#X text 26 457 Particulas Orgánicas;
#X text 149 482 Co2;
#X text 751 -1 Cámara térmica;
#X text 426 1 Nivel de verde en la hoja;
#X text 626 63 10 a 100;
#X obj 136 115 expr if($f1 >= 60 & $f1 <= 65 \, 1 \, 0);
#X obj 760 495 s arpOff;
#X obj 821 498 s arpOn;
#X obj 894 498 s freeOff;
#X obj 960 498 s freeOn;
#X obj 1028 499 s hojaOff;
#X obj 1101 499 s hojaOn;
#X obj 1108 700 s distOff;
#X obj 1183 700 s distOn;
#X obj 898 699 s revMarOff;
#X obj 987 701 s revMarOn;
#X obj 1225 543 s revGuiOn;
#X obj 1135 544 s revGuiOff;
#X obj 41 186 expr if($f1 <= 1 \, 0 \, 1);
#X obj 368 702 s guiEsp2Off;
#X obj 462 702 s guiEsp2On;
#X obj 1186 497 s distEspOff;
#X obj 1218 519 s distEspOn;
#X obj 747 681 s distMarOff;
#X obj 773 704 s distMarOn;
#X connect 2 0 0 0;
#X connect 3 0 1 0;
#X connect 4 0 160 0;
#X connect 5 0 4 0;
#X connect 6 0 7 0;
#X connect 7 0 3 0;
#X connect 7 1 2 0;
#X connect 9 0 3 0;
#X connect 10 0 2 0;
#X connect 12 0 14 0;
#X connect 14 0 147 0;
#X connect 15 0 16 0;
#X connect 16 1 17 0;
#X connect 17 0 19 0;
#X connect 18 0 21 0;
#X connect 18 1 22 0;
#X connect 18 2 23 0;
#X connect 19 0 20 0;
#X connect 20 0 18 0;
#X connect 21 0 25 0;
#X connect 22 0 26 0;
#X connect 23 0 27 0;
#X connect 24 0 17 0;
#X connect 28 0 36 0;
#X connect 29 0 30 0;
#X connect 30 0 41 0;
#X connect 31 0 42 0;
#X connect 32 0 31 0;
#X connect 34 0 39 0;
#X connect 35 0 41 5;
#X connect 35 0 42 5;
#X connect 37 0 35 0;
#X connect 38 0 31 0;
#X connect 40 0 30 0;
#X connect 41 0 34 0;
#X connect 42 0 28 0;
#X connect 43 0 50 0;
#X connect 45 0 49 0;
#X connect 46 0 47 0;
#X connect 48 0 46 0;
#X connect 49 0 50 5;
#X connect 50 0 46 0;
#X connect 51 0 43 0;
#X connect 52 0 54 0;
#X connect 53 0 55 0;
#X connect 54 0 62 0;
#X connect 55 0 63 0;
#X connect 56 0 60 0;
#X connect 57 0 61 0;
#X connect 58 0 62 5;
#X connect 58 0 63 5;
#X connect 59 0 58 0;
#X connect 62 0 56 0;
#X connect 63 0 57 0;
#X connect 64 0 68 0;
#X connect 65 0 64 0;
#X connect 66 0 65 0;
#X connect 67 0 70 0;
#X connect 68 0 67 0;
#X connect 68 1 69 0;
#X connect 69 0 71 0;
#X connect 72 0 83 0;
#X connect 73 0 134 0;
#X connect 74 0 114 0;
#X connect 75 0 129 0;
#X connect 76 0 116 0;
#X connect 77 0 117 0;
#X connect 78 0 88 0;
#X connect 79 0 96 0;
#X connect 80 0 97 0;
#X connect 81 0 109 0;
#X connect 82 0 85 0;
#X connect 83 0 82 0;
#X connect 84 0 94 0;
#X connect 85 0 84 0;
#X connect 85 1 86 0;
#X connect 86 0 95 0;
#X connect 87 0 90 0;
#X connect 88 0 87 0;
#X connect 89 0 92 0;
#X connect 90 0 89 0;
#X connect 90 1 91 0;
#X connect 91 0 93 0;
#X connect 96 0 98 0;
#X connect 97 0 99 0;
#X connect 98 0 101 0;
#X connect 99 0 104 0;
#X connect 100 0 150 0;
#X connect 101 0 100 0;
#X connect 101 1 102 0;
#X connect 102 0 151 0;
#X connect 103 0 148 0;
#X connect 104 0 103 0;
#X connect 104 1 105 0;
#X connect 105 0 149 0;
#X connect 106 0 161 0;
#X connect 107 0 106 0;
#X connect 107 1 108 0;
#X connect 108 0 162 0;
#X connect 109 0 110 0;
#X connect 110 0 107 0;
#X connect 111 0 156 0;
#X connect 112 0 111 0;
#X connect 112 1 113 0;
#X connect 113 0 157 0;
#X connect 114 0 115 0;
#X connect 115 0 112 0;
#X connect 116 0 118 0;
#X connect 117 0 119 0;
#X connect 118 0 121 0;
#X connect 119 0 124 0;
#X connect 120 0 163 0;
#X connect 121 0 120 0;
#X connect 121 1 122 0;
#X connect 122 0 164 0;
#X connect 123 0 154 0;
#X connect 124 0 123 0;
#X connect 124 1 125 0;
#X connect 125 0 155 0;
#X connect 126 0 159 0;
#X connect 127 0 126 0;
#X connect 127 1 128 0;
#X connect 128 0 158 0;
#X connect 129 0 130 0;
#X connect 130 0 127 0;
#X connect 131 0 165 0;
#X connect 132 0 131 0;
#X connect 132 1 133 0;
#X connect 133 0 166 0;
#X connect 134 0 135 0;
#X connect 135 0 132 0;
#X connect 136 0 137 0;
#X connect 137 0 139 0;
#X connect 138 0 152 0;
#X connect 139 0 138 0;
#X connect 139 1 140 0;
#X connect 140 0 153 0;
#X connect 141 0 136 0;
#X connect 147 0 15 0;
#X connect 160 0 6 0;
#X restore 2009 9 pd cerebro;
#X obj 2010 -22 bng 15 250 50 0 empty empty empty 17 7 0 10 -262144
-1 -1;
#X obj 2042 -21 bng 15 250 50 0 empty empty empty 17 7 0 10 -262144
-1 -1;
#X obj 2075 -19 bng 15 250 50 0 empty empty empty 17 7 0 10 -262144
-1 -1;
#X text 2008 -49 Dia | Noche | React;
#X obj 242 987 r arpe;
#X obj 772 942 r percu;
#X obj 1297 915 r hoja;
#X obj 2112 8 hsl 128 15 10 80 0 0 empty empty empty -2 -8 0 10 -262144
-1 -1 0 1;
#X text 2117 -19 estres 1;
#X obj 2116 59 hsl 128 15 10 50 0 0 empty empty empty -2 -8 0 10 -262144
-1 -1 0 1;
#X text 2121 32 estres 2;
#X text 692 15 30 a 50;
#X text 1134 877 Hoja Adán;
#X symbolatom 1432 -14 15 0 0 0 - - -;
#X symbolatom 1433 12 15 0 0 0 - - -;
#X floatatom 1564 257 5 0 0 0 - - -;
#X floatatom 1563 298 5 0 0 0 - - -;
#X floatatom 1560 331 5 0 0 0 - - -;
#X msg 1485 -84 listen 33333;
#X text 1437 -126 ON y OFF de los sensores;
#X floatatom 1561 214 5 0 0 0 - - -;
#X floatatom 1562 179 5 0 0 0 - - -;
#X floatatom 1561 369 5 0 0 0 - - -;
#X floatatom 1562 399 5 0 0 0 - - -;
#X floatatom 1559 17 5 0 0 0 - - -;
#X floatatom 1559 78 5 0 0 0 - - -;
#X floatatom 1560 45 5 0 0 0 - - -;
#X floatatom 1560 149 5 0 0 0 - - -;
#X text 167 661 Volumen 0 - 8;
#X obj 2265 6 hsl 128 15 0 127 0 0 empty empty empty -2 -8 0 10 -262144
-1 -1 0 1;
#X text 2259 -26 verdeidad - volumen;
#X obj 1158 8 s sHum;
#X obj 1613 259 s bCam;
#X obj 1606 297 s bPh;
#X obj 1614 332 s bSoilMoisture;
#X obj 1612 148 s bAirTemp;
#X obj 1611 179 s bAirHum;
#X obj 1609 368 s bGreenVal;
#X obj 1604 13 s bSLight;
#X obj 1616 402 s bSNoise;
#X obj 1605 83 s bSVoc;
#X obj 1606 54 s bSCo2;
#X obj 1613 215 s bSTemp;
#N canvas 69 119 1222 729 osc 0;
#X obj 81 51 inlet;
#X obj 71 339 outlet;
#X obj 126 341 outlet;
#X obj 182 341 outlet;
#X obj 81 134 oscparse;
#X obj 81 108 netreceive -u -b -f 666;
#X obj 81 160 list trim;
#X obj 242 343 outlet;
#X obj 297 345 outlet;
#X obj 353 345 outlet;
#X obj 407 345 outlet;
#X obj 463 345 outlet;
#X obj 519 349 outlet;
#X obj 575 349 outlet;
#X obj 635 351 outlet;
#X obj 690 353 outlet;
#X obj 746 353 outlet;
#X obj 800 353 outlet;
#X obj 856 353 outlet;
#X obj 915 354 outlet;
#X obj 85 200 unpack s s s f f f f f f f f f f f f f;
#X connect 0 0 5 0;
#X connect 4 0 6 0;
#X connect 5 0 4 0;
#X connect 6 0 20 0;
#X connect 20 0 1 0;
#X connect 20 1 2 0;
#X connect 20 2 3 0;
#X connect 20 3 7 0;
#X connect 20 4 8 0;
#X connect 20 5 9 0;
#X connect 20 6 10 0;
#X connect 20 7 11 0;
#X connect 20 8 12 0;
#X connect 20 9 13 0;
#X connect 20 10 14 0;
#X connect 20 11 15 0;
#X connect 20 12 16 0;
#X connect 20 13 17 0;
#X connect 20 14 18 0;
#X connect 20 15 19 0;
#X restore 1485 -48 pd osc receive;
#X floatatom 1559 119 5 0 0 0 - - -;
#X obj 1611 120 s bsHumAir;
#X obj 619 541 s volGuit;
#X msg 619 506 0.1;
#X connect 0 0 1 0;
#X connect 0 0 8 1;
#X connect 0 0 8 2;
#X connect 0 0 8 0;
#X connect 0 0 9 0;
#X connect 1 0 2 0;
#X connect 9 0 8 1;
#X connect 9 0 8 2;
#X connect 9 0 8 0;
#X connect 16 0 17 0;
#X connect 17 0 18 0;
#X connect 19 0 16 0;
#X connect 19 0 20 0;
#X connect 20 0 21 0;
#X connect 21 0 22 0;
#X connect 24 0 55 0;
#X connect 26 0 23 0;
#X connect 26 1 30 0;
#X connect 26 2 24 0;
#X connect 26 3 25 0;
#X connect 27 0 50 0;
#X connect 27 0 51 0;
#X connect 27 0 52 0;
#X connect 27 0 53 0;
#X connect 27 0 222 0;
#X connect 29 0 28 0;
#X connect 29 1 32 0;
#X connect 29 2 31 0;
#X connect 29 3 33 0;
#X connect 29 4 34 0;
#X connect 29 5 35 0;
#X connect 31 0 57 0;
#X connect 33 0 58 0;
#X connect 34 0 59 0;
#X connect 35 0 60 0;
#X connect 37 0 36 0;
#X connect 37 1 39 0;
#X connect 37 2 38 0;
#X connect 38 0 61 0;
#X connect 41 0 40 0;
#X connect 41 1 43 0;
#X connect 41 2 42 0;
#X connect 41 3 44 0;
#X connect 41 4 45 0;
#X connect 41 5 46 0;
#X connect 41 6 47 0;
#X connect 42 0 62 0;
#X connect 44 0 63 0;
#X connect 45 0 64 0;
#X connect 46 0 65 0;
#X connect 47 0 235 0;
#X connect 50 0 26 0;
#X connect 51 0 29 0;
#X connect 52 0 37 0;
#X connect 53 0 41 0;
#X connect 66 0 82 0;
#X connect 68 0 82 1;
#X connect 70 0 82 2;
#X connect 74 0 82 3;
#X connect 75 0 82 4;
#X connect 78 0 82 5;
#X connect 80 0 82 6;
#X connect 82 0 72 0;
#X connect 83 0 68 0;
#X connect 84 0 99 0;
#X connect 85 0 99 1;
#X connect 87 0 99 2;
#X connect 91 0 99 3;
#X connect 92 0 99 4;
#X connect 95 0 99 5;
#X connect 97 0 99 6;
#X connect 99 0 89 0;
#X connect 100 0 85 0;
#X connect 102 0 109 0;
#X connect 103 0 102 0;
#X connect 105 0 102 1;
#X connect 107 0 105 0;
#X connect 108 0 102 2;
#X connect 111 0 102 3;
#X connect 112 0 102 4;
#X connect 115 0 102 5;
#X connect 117 0 102 6;
#X connect 119 0 133 0;
#X connect 120 0 133 1;
#X connect 122 0 133 2;
#X connect 126 0 133 3;
#X connect 127 0 133 4;
#X connect 130 0 133 5;
#X connect 133 0 124 0;
#X connect 134 0 120 0;
#X connect 135 0 150 0;
#X connect 136 0 150 1;
#X connect 138 0 150 2;
#X connect 142 0 150 3;
#X connect 143 0 150 4;
#X connect 146 0 150 5;
#X connect 149 0 136 0;
#X connect 150 0 140 0;
#X connect 151 0 166 0;
#X connect 152 0 166 1;
#X connect 154 0 166 2;
#X connect 158 0 166 3;
#X connect 159 0 166 4;
#X connect 162 0 166 5;
#X connect 165 0 152 0;
#X connect 166 0 156 0;
#X connect 167 0 166 6;
#X connect 172 0 171 0;
#X connect 174 0 171 1;
#X connect 175 0 171 2;
#X connect 178 0 177 0;
#X connect 180 0 177 1;
#X connect 181 0 177 2;
#X connect 185 0 184 0;
#X connect 187 0 184 1;
#X connect 188 0 184 2;
#X connect 204 0 203 0;
#X connect 205 0 203 1;
#X connect 206 0 203 2;
#X connect 208 0 172 0;
#X connect 209 0 178 0;
#X connect 210 0 185 0;
#X connect 211 0 203 4;
#X connect 213 0 203 5;
#X connect 219 0 236 0;
#X connect 220 0 237 0;
#X connect 221 0 238 0;
#X connect 222 0 247 0;
#X connect 224 0 246 0;
#X connect 225 0 240 0;
#X connect 226 0 241 0;
#X connect 227 0 243 0;
#X connect 228 0 242 0;
#X connect 229 0 244 0;
#X connect 230 0 245 0;
#X connect 231 0 239 0;
#X connect 233 0 203 3;
#X connect 247 0 217 0;
#X connect 247 1 218 0;
#X connect 247 3 219 0;
#X connect 247 5 220 0;
#X connect 247 6 221 0;
#X connect 247 7 224 0;
#X connect 247 8 225 0;
#X connect 247 9 226 0;
#X connect 247 10 227 0;
#X connect 247 11 228 0;
#X connect 247 12 229 0;
#X connect 247 13 230 0;
#X connect 247 14 231 0;
#X connect 247 15 248 0;
#X connect 248 0 249 0;
#X connect 251 0 250 0;
